<?xml version="1.0" encoding="UTF-8" standalone="no"?>
<!-- Created with Inkscape (http://www.inkscape.org/) -->

<svg
   xmlns:dc="http://purl.org/dc/elements/1.1/"
   xmlns:cc="http://creativecommons.org/ns#"
   xmlns:rdf="http://www.w3.org/1999/02/22-rdf-syntax-ns#"
   xmlns:svg="http://www.w3.org/2000/svg"
   xmlns="http://www.w3.org/2000/svg"
   xmlns:sodipodi="http://sodipodi.sourceforge.net/DTD/sodipodi-0.dtd"
   xmlns:inkscape="http://www.inkscape.org/namespaces/inkscape"
   version="1.1"
   id="svg2"
   xml:space="preserve"
   width="519.15869"
   height="157.65733"
   viewBox="0 0 519.15869 157.65733"
   sodipodi:docname="Logo_BH_orizz.svg"
   inkscape:version="0.92.3 (2405546, 2018-03-11)"><metadata
     id="metadata8"><rdf:RDF><cc:Work
         rdf:about=""><dc:format>image/svg+xml</dc:format><dc:type
           rdf:resource="http://purl.org/dc/dcmitype/StillImage" /><dc:title></dc:title></cc:Work></rdf:RDF></metadata><defs
     id="defs6"><clipPath
       clipPathUnits="userSpaceOnUse"
       id="clipPath18"><path
         d="M 0,118.243 H 389.369 V 0 H 0 Z"
         id="path16"
         inkscape:connector-curvature="0" /></clipPath></defs><sodipodi:namedview
     pagecolor="#ffffff"
     bordercolor="#666666"
     borderopacity="1"
     objecttolerance="10"
     gridtolerance="10"
     guidetolerance="10"
     inkscape:pageopacity="0"
     inkscape:pageshadow="2"
     inkscape:window-width="3373"
     inkscape:window-height="1385"
     id="namedview4"
     showgrid="false"
     inkscape:zoom="8"
     inkscape:cx="327.51909"
     inkscape:cy="65.397922"
     inkscape:window-x="1347"
     inkscape:window-y="27"
     inkscape:window-maximized="1"
     inkscape:current-layer="g10" /><g
     id="g10"
     inkscape:groupmode="layer"
     inkscape:label="Logo_BH_orizz"
     transform="matrix(1.3333333,0,0,-1.3333333,0,157.65733)"><g
       id="g12"><g
         id="g14"
         clip-path="url(#clipPath18)"><g
           id="g20"
           transform="translate(92.0556,59.5368)"><path
             d="M 0,0 H 1.391 V 11.718 H 0 v 0.483 h 4.866 c 2.973,0 4.516,-1.062 4.516,-2.935 0,-1.563 -1.1,-2.664 -3.108,-2.992 V 6.197 C 8.514,5.83 9.807,4.537 9.807,2.991 9.807,0.83 8.07,-0.483 4.788,-0.483 H 0 Z m 4.71,6.429 c 2.143,0 2.722,0.695 2.722,2.779 0,2.046 -0.791,2.51 -2.798,2.51 H 3.282 V 6.429 Z M 3.282,0 h 1.679 c 2.124,0 2.742,0.674 2.742,2.895 0,2.221 -0.791,3.05 -2.915,3.05 H 3.282 Z"
             style="fill:#8d1c15;fill-opacity:1;fill-rule:nonzero;stroke:none"
             id="path22"
             inkscape:connector-curvature="0" /></g><g
           id="g24"
           transform="translate(104.1572,59.5368)"><path
             d="M 0,0 H 1.602 V 11.718 H 0 v 0.483 H 5.173 V 11.718 H 3.533 V 0 h 1.64 V -0.483 H 0 Z"
             style="fill:#8d1c15;fill-opacity:1;fill-rule:nonzero;stroke:none"
             id="path26"
             inkscape:connector-curvature="0" /></g><g
           id="g28"
           transform="translate(112.6689,59.5368)"><path
             d="M 0,0 H 1.39 V 11.718 H 0 v 0.483 h 4.865 c 2.973,0 4.517,-1.062 4.517,-2.935 0,-1.563 -1.1,-2.664 -3.108,-2.992 V 6.197 C 8.514,5.83 9.807,4.537 9.807,2.991 9.807,0.83 8.07,-0.483 4.788,-0.483 H 0 Z m 4.711,6.429 c 2.143,0 2.722,0.695 2.722,2.779 0,2.046 -0.792,2.51 -2.8,2.51 H 3.282 V 6.429 Z M 3.282,0 h 1.68 c 2.123,0 2.741,0.674 2.741,2.895 0,2.221 -0.791,3.05 -2.915,3.05 H 3.282 Z"
             style="fill:#8d1c15;fill-opacity:1;fill-rule:nonzero;stroke:none"
             id="path30"
             inkscape:connector-curvature="0" /></g><g
           id="g32"
           transform="translate(124.3843,59.5368)"><path
             d="M 0,0 H 1.583 V 11.718 H 0.058 v 0.483 H 5.25 V 11.718 H 3.514 L 3.514,0 H 6.12 C 8.051,0 8.803,0.733 9.363,3.089 H 9.729 L 9.518,-0.483 H 0 Z"
             style="fill:#8d1c15;fill-opacity:1;fill-rule:nonzero;stroke:none"
             id="path34"
             inkscape:connector-curvature="0" /></g><g
           id="g36"
           transform="translate(136.8716,59.5368)"><path
             d="M 0,0 H 1.602 V 11.718 H 0 v 0.483 H 5.173 V 11.718 H 3.533 V 0 h 1.64 V -0.483 H 0 Z"
             style="fill:#8d1c15;fill-opacity:1;fill-rule:nonzero;stroke:none"
             id="path38"
             inkscape:connector-curvature="0" /></g><g
           id="g40"
           transform="translate(146.9463,60.7326)"><path
             d="m 0,0 c -0.926,1.198 -1.486,2.876 -1.486,4.711 0,1.776 0.522,3.263 1.486,4.46 1.12,1.371 2.414,2.064 4.016,2.064 1.506,0 2.741,-0.596 3.803,-1.834 C 8.901,8.147 9.499,6.487 9.499,4.615 9.499,2.8 8.92,1.119 7.916,-0.114 6.873,-1.408 5.657,-1.987 4.016,-1.987 2.297,-1.987 1.062,-1.369 0,0 m 0.695,3.843 c 0,-3.592 1.081,-5.348 3.321,-5.348 2.239,0 3.301,1.776 3.301,5.385 0,4.731 -0.598,6.912 -3.301,6.912 -2.683,0 -3.321,-2.22 -3.321,-6.949"
             style="fill:#8d1c15;fill-opacity:1;fill-rule:nonzero;stroke:none"
             id="path42"
             inkscape:connector-curvature="0" /></g><g
           id="g44"
           transform="translate(162.9277,59.5368)"><path
             d="m 0,0 h 1.603 v 11.718 c -0.232,0.02 -0.425,0.02 -0.638,0.02 -1.853,0 -2.548,-0.85 -3.031,-3.245 h -0.425 l 0.174,3.708 H 7.471 L 7.606,8.571 H 7.143 c -0.29,2.277 -1.139,3.167 -3.108,3.167 -0.174,0 -0.348,0 -0.521,-0.02 L 3.514,0 H 5.078 V -0.483 H 0 Z"
             style="fill:#8d1c15;fill-opacity:1;fill-rule:nonzero;stroke:none"
             id="path46"
             inkscape:connector-curvature="0" /></g><g
           id="g48"
           transform="translate(173.5234,59.5368)"><path
             d="M 0,0 H 1.429 V 11.718 H 0 v 0.483 H 4.787 V 11.718 H 3.358 V 6.351 h 5.464 v 5.367 H 7.393 v 0.483 h 4.788 V 11.718 H 10.752 V 0 h 1.429 V -0.483 H 7.393 V 0 H 8.822 V 5.811 H 3.358 V 0 H 4.787 V -0.483 H 0 Z"
             style="fill:#8d1c15;fill-opacity:1;fill-rule:nonzero;stroke:none"
             id="path50"
             inkscape:connector-curvature="0" /></g><g
           id="g52"
           transform="translate(189.1176,59.5368)"><path
             d="M 0,0 H 1.429 V 11.718 H 0 v 0.483 H 9.421 V 9.15 H 9.015 C 8.707,11.215 7.819,11.718 5.734,11.718 H 3.359 V 6.351 h 0.386 c 1.622,0 2.24,0.502 2.356,2.008 H 6.506 V 3.591 H 6.101 C 6.004,5.309 5.31,5.87 3.456,5.87 H 3.359 V 0 H 6.042 C 8.167,0 8.977,0.773 9.46,3.127 H 9.885 L 9.691,-0.483 H 0 Z"
             style="fill:#8d1c15;fill-opacity:1;fill-rule:nonzero;stroke:none"
             id="path54"
             inkscape:connector-curvature="0" /></g><g
           id="g56"
           transform="translate(212.5508,62.4514)"><path
             d="m 0,0 v -3.398 h -0.405 l -0.598,0.619 c -0.773,-0.619 -1.796,-0.927 -3.07,-0.927 -3.129,0 -5.387,2.625 -5.387,6.448 0,1.814 0.522,3.436 1.525,4.71 1.024,1.314 2.588,2.065 4.093,2.065 1.043,0 1.913,-0.309 2.8,-0.984 l 0.637,0.598 h 0.29 V 5.927 h -0.406 c -0.541,2.084 -1.717,3.166 -3.398,3.166 -2.471,0 -3.358,-2.201 -3.358,-6.719 0,-1.871 0.115,-3.225 0.674,-4.151 0.523,-0.887 1.487,-1.409 2.491,-1.409 1.834,0 3.128,1.082 3.745,3.186 z"
             style="fill:#8d1c15;fill-opacity:1;fill-rule:nonzero;stroke:none"
             id="path58"
             inkscape:connector-curvature="0" /></g><g
           id="g60"
           transform="translate(215.1924,59.5368)"><path
             d="M 0,0 H 1.505 L 5.829,12.529 H 6.313 L 10.347,0 H 11.68 V -0.483 H 6.853 V 0 H 8.416 L 7.144,4.072 H 3.475 L 2.124,0 H 3.726 V -0.483 H 0 Z M 6.968,4.633 5.367,9.729 3.648,4.633 Z"
             style="fill:#8d1c15;fill-opacity:1;fill-rule:nonzero;stroke:none"
             id="path62"
             inkscape:connector-curvature="0" /></g><g
           id="g64"
           transform="translate(234.395,59.5368)"><path
             d="M 0,0 H 1.43 V 11.718 H 0 v 0.483 H 4.788 V 11.718 H 3.36 V 6.351 h 5.463 v 5.367 H 7.395 v 0.483 h 4.788 v -0.483 h -1.43 V 0 h 1.43 V -0.483 H 7.395 V 0 H 8.823 V 5.811 H 3.36 V 0 H 4.788 V -0.483 H 0 Z"
             style="fill:#8d1c15;fill-opacity:1;fill-rule:nonzero;stroke:none"
             id="path66"
             inkscape:connector-curvature="0" /></g><g
           id="g68"
           transform="translate(249.7207,59.5368)"><path
             d="M 0,0 H 1.428 V 11.718 H 0 v 0.483 H 9.421 V 9.15 H 9.017 c -0.31,2.065 -1.198,2.568 -3.282,2.568 H 3.358 V 6.351 h 0.387 c 1.621,0 2.24,0.502 2.357,2.008 H 6.506 V 3.591 H 6.102 C 6.003,5.309 5.309,5.87 3.455,5.87 H 3.358 V 0 H 6.043 C 8.166,0 8.977,0.773 9.46,3.127 H 9.886 L 9.69,-0.483 H 0 Z"
             style="fill:#8d1c15;fill-opacity:1;fill-rule:nonzero;stroke:none"
             id="path70"
             inkscape:connector-curvature="0" /></g><g
           id="g72"
           transform="translate(263.8486,59.5368)"><path
             d="m 0,0 v 11.718 h -1.428 v 0.483 h 5.367 c 2.896,0 4.419,-1.062 4.419,-2.799 C 8.358,7.703 6.971,6.506 4.5,6.39 V 6.235 c 1.891,-0.328 3.068,-1.37 3.281,-2.742 0.194,-1.214 0,-2.316 0.27,-3.012 0.174,-0.462 0.464,-0.654 0.965,-0.654 0.329,0 0.656,0.094 0.984,0.25 V -0.405 C 9.364,-0.675 8.765,-0.811 8.242,-0.811 6.545,-0.811 5.868,0.502 5.754,3.089 5.717,3.977 5.717,4.672 5.156,5.289 4.634,5.85 3.863,6.158 2.993,6.158 H 1.873 V 0 H 3.34 V -0.483 H -1.507 V 0 Z m 2.993,6.659 c 2.318,0 3.281,0.425 3.281,2.626 0,2.047 -0.793,2.433 -2.741,2.433 H 1.873 V 6.659 Z"
             style="fill:#8d1c15;fill-opacity:1;fill-rule:nonzero;stroke:none"
             id="path74"
             inkscape:connector-curvature="0" /></g><g
           id="g76"
           transform="translate(278.208,59.5368)"><path
             d="m 0,0 h 1.604 v 11.718 c -0.233,0.02 -0.424,0.02 -0.637,0.02 -1.857,0 -2.548,-0.85 -3.033,-3.245 H -2.49 l 0.176,3.708 H 7.472 L 7.606,8.571 H 7.145 c -0.291,2.277 -1.14,3.167 -3.11,3.167 -0.174,0 -0.346,0 -0.52,-0.02 V 0 H 5.078 V -0.483 H 0 Z"
             style="fill:#8d1c15;fill-opacity:1;fill-rule:nonzero;stroke:none"
             id="path78"
             inkscape:connector-curvature="0" /></g><g
           id="g80"
           transform="translate(288.2832,59.7302)"><path
             d="M 0,0 7.393,11.525 H 3.61 C 2.2,11.525 1.524,10.752 1.138,8.957 H 0.617 l 0.211,3.05 H 9.499 V 11.409 L 2.047,-0.193 h 3.417 c 2.298,0 3.165,0.791 3.532,3.147 H 9.499 L 9.266,-0.677 H 0 Z"
             style="fill:#8d1c15;fill-opacity:1;fill-rule:nonzero;stroke:none"
             id="path82"
             inkscape:connector-curvature="0" /></g><g
           id="g84"
           transform="translate(301.0791,59.5368)"><path
             d="M 0,0 H 1.602 V 11.718 H 0 v 0.483 H 5.175 V 11.718 H 3.534 V 0 H 5.175 V -0.483 H 0 Z"
             style="fill:#8d1c15;fill-opacity:1;fill-rule:nonzero;stroke:none"
             id="path86"
             inkscape:connector-curvature="0" /></g><g
           id="g88"
           transform="translate(308.9531,59.5368)"><path
             d="M 0,0 H 1.507 L 5.831,12.529 H 6.314 L 10.349,0 H 11.68 V -0.483 H 6.853 V 0 H 8.418 L 7.145,4.072 H 3.477 L 2.126,0 H 3.727 V -0.483 H 0 Z M 6.971,4.633 5.368,9.729 3.648,4.633 Z"
             style="fill:#8d1c15;fill-opacity:1;fill-rule:nonzero;stroke:none"
             id="path90"
             inkscape:connector-curvature="0" /></g><g
           id="g92"
           transform="translate(322.292,59.5368)"><path
             d="m 0,0 h 1.428 v 11.718 h -1.41 v 0.483 H 3.705 L 9.11,3.127 v 8.591 H 7.663 v 0.483 h 3.531 V 11.718 H 9.729 V -0.791 H 9.227 L 2.026,11.487 V 0 H 3.454 V -0.483 H 0 Z"
             style="fill:#8d1c15;fill-opacity:1;fill-rule:nonzero;stroke:none"
             id="path94"
             inkscape:connector-curvature="0" /></g><g
           id="g96"
           transform="translate(341.3232,72.0656)"><path
             d="m 0,0 -4.327,-12.529 h -1.504 v -0.483 h 3.727 v 0.483 h -1.603 l 1.353,4.073 h 3.666 l 1.275,-4.073 H 1.021 v -0.483 h 4.83 v 0.483 H 4.516 L 0.48,0 Z m -0.464,-2.799 1.602,-5.097 h -3.32 z"
             style="fill:#8d1c15;fill-opacity:1;fill-rule:nonzero;stroke:none"
             id="path98"
             inkscape:connector-curvature="0" /></g><g
           id="g100"
           transform="translate(97.3716,52.425)"><path
             d="M 0,0 -1.372,-4.503 -2.659,0 h -1.835 v -0.233 h 0.667 v -5.623 h -0.667 v -0.232 h 1.64 v 0.232 H -3.54 v 5.54 h 0.074 l 1.64,-5.772 h 0.232 l 1.761,5.772 h 0.037 v -5.54 h -0.686 v -0.232 h 2.27 v 0.232 H 1.075 v 5.623 h 0.713 l 0,0.233 z"
             style="fill:#575756;fill-opacity:1;fill-rule:nonzero;stroke:none"
             id="path102"
             inkscape:connector-curvature="0" /></g><g
           id="g104"
           transform="translate(103.7075,52.5812)"><path
             d="m 0,0 -2.075,-6.013 h -0.723 v -0.232 h 1.788 v 0.232 h -0.769 l 0.649,1.955 H 0.631 L 1.242,-6.013 H 0.491 v -0.232 h 2.317 v 0.232 H 2.168 L 0.231,0 Z M -0.222,-1.343 0.546,-3.79 h -1.593 z"
             style="fill:#575756;fill-opacity:1;fill-rule:nonzero;stroke:none"
             id="path106"
             inkscape:connector-curvature="0" /></g><g
           id="g108"
           transform="translate(111.3965,52.425)"><path
             d="m 0,0 v -0.233 h 0.751 l -1.325,-2.131 -1.269,2.131 h 0.657 V 0 H -3.54 v -0.233 h 0.649 l 1.761,-2.946 -1.668,-2.677 h -0.779 v -0.232 h 1.89 v 0.232 h -0.787 l 1.483,2.435 1.464,-2.435 h -0.742 v -0.232 h 2.392 v 0.232 H 1.52 l -1.956,3.251 1.483,2.372 h 0.769 l 0,0.233 z"
             style="fill:#575756;fill-opacity:1;fill-rule:nonzero;stroke:none"
             id="path110"
             inkscape:connector-curvature="0" /></g><path
           d="m 115.389,48.44 h 2.251 V 47.8 h -2.251 z"
           style="fill:#575756;fill-opacity:1;fill-rule:nonzero;stroke:none"
           id="path112"
           inkscape:connector-curvature="0" /><g
           id="g114"
           transform="translate(119.521,46.5685)"><path
             d="M 0,0 H 0.685 V 5.624 H 0 V 5.856 H 2.112 C 3.78,5.856 4.604,5.355 4.604,4.28 4.604,3.148 3.706,2.52 1.955,2.52 H 1.575 V 0 H 2.297 V -0.232 H 0 Z m 1.982,2.762 c 1.251,0 1.66,0.426 1.66,1.509 0,1.168 -0.445,1.353 -1.641,1.353 H 1.575 V 2.762 Z"
             style="fill:#575756;fill-opacity:1;fill-rule:nonzero;stroke:none"
             id="path116"
             inkscape:connector-curvature="0" /></g><g
           id="g118"
           transform="translate(125.8013,46.5685)"><path
             d="M 0,0 H 0.76 V 5.624 H 0.028 V 5.856 H 2.52 V 5.624 H 1.687 V 0 h 1.25 C 3.864,0 4.226,0.351 4.495,1.482 H 4.67 L 4.568,-0.232 H 0 Z"
             style="fill:#575756;fill-opacity:1;fill-rule:nonzero;stroke:none"
             id="path120"
             inkscape:connector-curvature="0" /></g><g
           id="g122"
           transform="translate(134.769,52.5812)"><path
             d="m 0,0 -2.076,-6.013 h -0.721 v -0.232 h 1.788 v 0.232 h -0.77 l 0.649,1.955 h 1.761 l 0.611,-1.955 h -0.75 v -0.232 h 2.316 v 0.232 H 2.169 L 0.232,0 Z M -0.221,-1.343 0.547,-3.79 h -1.593 z"
             style="fill:#575756;fill-opacity:1;fill-rule:nonzero;stroke:none"
             id="path124"
             inkscape:connector-curvature="0" /></g><g
           id="g126"
           transform="translate(143.0053,52.425)"><path
             d="M 0,0 V -0.233 H 0.695 V -4.355 L -1.899,0 h -1.77 v -0.233 h 0.676 v -5.623 h -0.685 v -0.232 h 1.658 v 0.232 h -0.686 v 5.513 l 3.457,-5.895 h 0.241 v 6.005 h 0.704 l 0,0.233 z"
             style="fill:#575756;fill-opacity:1;fill-rule:nonzero;stroke:none"
             id="path128"
             inkscape:connector-curvature="0" /></g><g
           id="g130"
           transform="translate(151.9546,47.9655)"><path
             d="m 0,0 v -1.629 h -0.194 l -0.288,0.296 c -0.371,-0.296 -0.862,-0.445 -1.473,-0.445 -1.501,0 -2.585,1.26 -2.585,3.096 0,0.87 0.25,1.648 0.731,2.261 0.492,0.63 1.243,0.99 1.964,0.99 0.501,0 0.918,-0.148 1.345,-0.472 l 0.306,0.287 h 0.139 V 2.845 H -0.25 c -0.26,1.001 -0.825,1.521 -1.631,1.521 -1.186,0 -1.612,-1.057 -1.612,-3.224 0,-0.9 0.055,-1.549 0.325,-1.993 0.249,-0.426 0.713,-0.676 1.195,-0.676 0.879,0 1.501,0.519 1.797,1.527 z"
             style="fill:#575756;fill-opacity:1;fill-rule:nonzero;stroke:none"
             id="path132"
             inkscape:connector-curvature="0" /></g><g
           id="g134"
           transform="translate(157.6142,52.425)"><path
             d="M 0,0 V -0.233 H 0.77 L -1.668,-2.809 V -2.902 L 0.64,-5.856 h -0.732 v -0.232 h 2.298 v 0.238 h -0.51 l -2.677,3.366 2.122,2.251 h 0.685 l 0,0.233 z m -3.372,0 v -0.233 h 0.685 v -5.623 h -0.685 v -0.232 h 2.288 v 0.232 h -0.685 v 5.623 h 0.685 V 0 Z"
             style="fill:#575756;fill-opacity:1;fill-rule:nonzero;stroke:none"
             id="path136"
             inkscape:connector-curvature="0" /></g><path
           d="m 161.144,48.44 h 2.251 V 47.8 h -2.251 z"
           style="fill:#575756;fill-opacity:1;fill-rule:nonzero;stroke:none"
           id="path138"
           inkscape:connector-curvature="0" /><g
           id="g140"
           transform="translate(165.3681,52.425)"><path
             d="M 0,0 V -0.233 H 0.769 V -5.856 H 0 v -0.232 h 2.483 v 0.232 H 1.696 v 5.623 H 2.483 V 0 Z"
             style="fill:#575756;fill-opacity:1;fill-rule:nonzero;stroke:none"
             id="path142"
             inkscape:connector-curvature="0" /></g><g
           id="g144"
           transform="translate(174.04,52.425)"><path
             d="M 0,0 V -0.233 H 0.694 V -4.355 L -1.9,0 h -1.769 v -0.233 h 0.677 v -5.623 h -0.687 v -0.232 h 1.659 v 0.232 h -0.685 v 5.513 L 0.75,-6.238 h 0.241 v 6.005 h 0.705 l 0,0.233 z"
             style="fill:#575756;fill-opacity:1;fill-rule:nonzero;stroke:none"
             id="path146"
             inkscape:connector-curvature="0" /></g><g
           id="g148"
           transform="translate(177.7544,46.3093)"><path
             d="M 0,0 V 1.602 H 0.175 C 0.472,0.676 1.148,0.138 1.917,0.138 c 0.881,0 1.558,0.631 1.558,1.419 0,0.74 -0.529,0.86 -1.53,1.175 -1.26,0.399 -1.936,0.751 -1.936,1.827 0,0.981 0.704,1.694 1.779,1.694 0.778,0 1.131,-0.36 1.214,-0.36 0.019,0 0.055,0.009 0.083,0.045 L 3.262,6.133 H 3.456 V 4.744 H 3.29 C 2.993,5.615 2.464,6.05 1.686,6.05 0.982,6.05 0.445,5.566 0.445,4.965 0.445,4.446 0.824,4.16 1.621,3.946 2.334,3.752 2.9,3.632 3.29,3.335 3.688,3.029 3.901,2.565 3.901,1.982 3.901,0.731 3.113,-0.085 1.834,-0.085 0.964,-0.085 0.593,0.333 0.51,0.333 0.491,0.333 0.463,0.314 0.435,0.286 L 0.157,0 Z"
             style="fill:#575756;fill-opacity:1;fill-rule:nonzero;stroke:none"
             id="path150"
             inkscape:connector-curvature="0" /></g><g
           id="g152"
           transform="translate(184.9336,46.5685)"><path
             d="m 0,0 h 0.769 v 5.624 c -0.112,0.01 -0.203,0.01 -0.306,0.01 -0.889,0 -1.223,-0.408 -1.454,-1.557 h -0.204 l 0.084,1.779 H 3.586 L 3.65,4.113 H 3.429 C 3.291,5.208 2.882,5.634 1.936,5.634 c -0.082,0 -0.166,0 -0.25,-0.01 V 0 h 0.751 v -0.232 l -2.437,0 z"
             style="fill:#575756;fill-opacity:1;fill-rule:nonzero;stroke:none"
             id="path154"
             inkscape:connector-curvature="0" /></g><g
           id="g156"
           transform="translate(190.2881,52.425)"><path
             d="M 0,0 V -0.233 H 0.769 V -5.856 H 0 v -0.232 h 2.483 v 0.232 H 1.696 v 5.623 H 2.483 V 0 Z"
             style="fill:#575756;fill-opacity:1;fill-rule:nonzero;stroke:none"
             id="path158"
             inkscape:connector-curvature="0" /></g><g
           id="g160"
           transform="translate(196.0229,46.5685)"><path
             d="m 0,0 h 0.769 v 5.624 c -0.111,0.01 -0.204,0.01 -0.306,0.01 -0.89,0 -1.223,-0.408 -1.455,-1.557 h -0.203 l 0.083,1.779 H 3.585 L 3.651,4.113 H 3.429 c -0.14,1.095 -0.547,1.521 -1.492,1.521 -0.084,0 -0.167,0 -0.25,-0.01 V 0 h 0.75 V -0.232 H 0 Z"
             style="fill:#575756;fill-opacity:1;fill-rule:nonzero;stroke:none"
             id="path162"
             inkscape:connector-curvature="0" /></g><g
           id="g164"
           transform="translate(202.7104,52.1921)"><path
             d="M 0,0 H -0.712 V 0.233 H 1.585 V 0 H 0.882 v -4.262 c 0,-0.945 0.453,-1.446 1.287,-1.446 0.973,0 1.492,0.612 1.492,1.789 V 0 H 2.966 V 0.233 H 4.634 V 0 H 3.938 V -3.947 C 3.938,-5.337 3.29,-6.015 1.91,-6.015 0.724,-6.015 0,-5.374 0,-4.317 Z"
             style="fill:#575756;fill-opacity:1;fill-rule:nonzero;stroke:none"
             id="path166"
             inkscape:connector-curvature="0" /></g><g
           id="g168"
           transform="translate(210.3452,46.5685)"><path
             d="m 0,0 h 0.769 v 5.624 c -0.112,0.01 -0.204,0.01 -0.306,0.01 -0.889,0 -1.223,-0.408 -1.454,-1.557 h -0.204 l 0.083,1.779 H 3.585 L 3.651,4.113 H 3.428 C 3.289,5.208 2.882,5.634 1.936,5.634 c -0.084,0 -0.167,0 -0.25,-0.01 V 0 h 0.75 v -0.232 l -2.436,0 z"
             style="fill:#575756;fill-opacity:1;fill-rule:nonzero;stroke:none"
             id="path170"
             inkscape:connector-curvature="0" /></g><g
           id="g172"
           transform="translate(219.6089,46.5685)"><path
             d="M 0,0 H 0.685 V 5.624 H 0 V 5.856 H 4.531 V 4.233 H 4.336 C 4.243,5.346 3.808,5.624 2.753,5.624 H 1.612 V 3.001 h 0.083 c 0.799,0 1.113,0.259 1.167,0.964 H 3.057 V 1.696 H 2.862 C 2.799,2.445 2.494,2.762 1.797,2.762 1.732,2.762 1.676,2.751 1.612,2.751 V 0 H 2.335 V -0.232 H 0 Z"
             style="fill:#575756;fill-opacity:1;fill-rule:nonzero;stroke:none"
             id="path174"
             inkscape:connector-curvature="0" /></g><g
           id="g176"
           transform="translate(226.6577,52.1921)"><path
             d="M 0,0 H -0.713 V 0.233 H 1.585 V 0 H 0.881 v -4.262 c 0,-0.945 0.454,-1.446 1.289,-1.446 0.971,0 1.492,0.612 1.492,1.789 V 0 H 2.966 V 0.233 H 4.634 V 0 H 3.938 v -3.947 c 0,-1.39 -0.649,-2.068 -2.028,-2.068 -1.186,0 -1.91,0.641 -1.91,1.698 z m 1.26,1.993 c 0.24,0 0.455,-0.204 0.455,-0.446 0,-0.259 -0.205,-0.455 -0.455,-0.455 -0.25,0 -0.444,0.196 -0.444,0.455 0,0.242 0.203,0.446 0.444,0.446 m 1.725,0 c 0.241,0 0.453,-0.204 0.453,-0.446 0,-0.259 -0.203,-0.455 -0.453,-0.455 -0.25,0 -0.445,0.196 -0.445,0.455 0,0.242 0.203,0.446 0.445,0.446"
             style="fill:#575756;fill-opacity:1;fill-rule:nonzero;stroke:none"
             id="path178"
             inkscape:connector-curvature="0" /></g><g
           id="g180"
           transform="translate(234.0415,46.5685)"><path
             d="M 0,0 V 5.624 H -0.686 V 5.856 H 1.891 C 3.28,5.856 4.013,5.346 4.013,4.511 4.013,3.696 3.345,3.122 2.16,3.066 V 2.993 c 0.908,-0.158 1.474,-0.66 1.575,-1.317 0.094,-0.583 0,-1.112 0.131,-1.446 0.081,-0.223 0.22,-0.314 0.463,-0.314 0.157,0 0.313,0.045 0.472,0.12 V -0.195 C 4.495,-0.326 4.208,-0.391 3.957,-0.391 3.143,-0.391 2.817,0.241 2.762,1.482 2.744,1.908 2.744,2.241 2.475,2.538 2.226,2.807 1.854,2.954 1.438,2.954 H 0.899 V 0 H 1.604 V -0.232 H -0.722 V 0 Z m 1.438,3.196 c 1.111,0 1.573,0.203 1.573,1.26 0,0.983 -0.379,1.168 -1.315,1.168 H 0.899 V 3.196 Z"
             style="fill:#575756;fill-opacity:1;fill-rule:nonzero;stroke:none"
             id="path182"
             inkscape:connector-curvature="0" /></g><g
           id="g184"
           transform="translate(246.7236,52.425)"><path
             d="M 0,0 V -0.233 H 0.771 L -1.666,-2.809 V -2.902 L 0.64,-5.856 H -0.092 V -6.088 H 2.207 V -5.85 H 1.696 l -2.676,3.366 2.121,2.251 h 0.686 l 0,0.233 z m -3.372,0 v -0.233 h 0.685 v -5.623 h -0.685 v -0.232 h 2.29 v 0.232 h -0.687 v 5.623 h 0.687 V 0 Z"
             style="fill:#575756;fill-opacity:1;fill-rule:nonzero;stroke:none"
             id="path186"
             inkscape:connector-curvature="0" /></g><g
           id="g188"
           transform="translate(251.6152,52.1921)"><path
             d="M 0,0 H -0.714 V 0.233 H 1.584 V 0 H 0.881 v -4.262 c 0,-0.945 0.455,-1.446 1.287,-1.446 0.973,0 1.492,0.612 1.492,1.789 V 0 H 2.964 V 0.233 H 4.632 V 0 H 3.938 v -3.947 c 0,-1.39 -0.65,-2.068 -2.03,-2.068 C 0.725,-6.015 0,-5.374 0,-4.317 Z"
             style="fill:#575756;fill-opacity:1;fill-rule:nonzero;stroke:none"
             id="path190"
             inkscape:connector-curvature="0" /></g><g
           id="g192"
           transform="translate(262.1123,52.425)"><path
             d="M 0,0 V -0.233 H 0.695 V -4.355 L -1.899,0 h -1.77 v -0.233 h 0.675 v -5.623 h -0.685 v -0.232 h 1.659 v 0.232 h -0.686 v 5.513 l 3.457,-5.895 h 0.24 v 6.005 h 0.704 l 0,0.233 z"
             style="fill:#575756;fill-opacity:1;fill-rule:nonzero;stroke:none"
             id="path194"
             inkscape:connector-curvature="0" /></g><g
           id="g196"
           transform="translate(266.3828,46.3093)"><path
             d="M 0,0 V 1.602 H 0.176 C 0.473,0.676 1.148,0.138 1.917,0.138 c 0.881,0 1.557,0.631 1.557,1.419 0,0.74 -0.529,0.86 -1.53,1.175 -1.258,0.399 -1.936,0.751 -1.936,1.827 0,0.981 0.705,1.694 1.779,1.694 0.779,0 1.13,-0.36 1.214,-0.36 0.018,0 0.056,0.009 0.084,0.045 L 3.261,6.133 H 3.456 V 4.744 H 3.289 C 2.993,5.615 2.465,6.05 1.687,6.05 0.981,6.05 0.443,5.566 0.443,4.965 0.443,4.446 0.824,4.16 1.621,3.946 2.334,3.752 2.899,3.632 3.289,3.335 3.687,3.029 3.901,2.565 3.901,1.982 3.901,0.731 3.112,-0.085 1.833,-0.085 0.963,-0.085 0.592,0.333 0.509,0.333 0.49,0.333 0.461,0.314 0.436,0.286 L 0.156,0 Z"
             style="fill:#575756;fill-opacity:1;fill-rule:nonzero;stroke:none"
             id="path198"
             inkscape:connector-curvature="0" /></g><g
           id="g200"
           transform="translate(273.5341,46.5685)"><path
             d="m 0,0 h 0.769 v 5.624 c -0.113,0.01 -0.204,0.01 -0.306,0.01 -0.89,0 -1.224,-0.408 -1.454,-1.557 h -0.205 l 0.084,1.779 H 3.586 L 3.65,4.113 H 3.428 C 3.289,5.208 2.881,5.634 1.936,5.634 c -0.082,0 -0.166,0 -0.249,-0.01 V 0 h 0.75 v -0.232 l -2.437,0 z"
             style="fill:#575756;fill-opacity:1;fill-rule:nonzero;stroke:none"
             id="path202"
             inkscape:connector-curvature="0" /></g><g
           id="g204"
           transform="translate(285.4297,48.4763)"><path
             d="m 0,0 v -0.212 h -0.557 c 0,-1.326 -0.841,-2.077 -2.361,-2.077 -1.595,0 -2.659,1.205 -2.659,3.114 0,0.889 0.276,1.686 0.806,2.308 0.519,0.611 1.175,0.926 1.927,0.926 0.583,0 1.094,-0.176 1.511,-0.5 l 0.332,0.324 H -0.87 V 2.334 h -0.194 c -0.224,0.966 -0.873,1.502 -1.734,1.502 -1.223,0 -1.732,-0.982 -1.732,-3.039 0,-1.955 0.407,-2.853 1.583,-2.853 1.01,0 1.38,0.49 1.38,1.63 v 0.214 H -2.428 V 0 Z"
             style="fill:#575756;fill-opacity:1;fill-rule:nonzero;stroke:none"
             id="path206"
             inkscape:connector-curvature="0" /></g><g
           id="g208"
           transform="translate(287.2158,46.5685)"><path
             d="M 0,0 H 0.686 V 5.624 H 0 V 5.856 H 4.522 V 4.391 H 4.33 C 4.179,5.382 3.753,5.624 2.753,5.624 H 1.613 V 3.047 h 0.185 c 0.778,0 1.074,0.242 1.132,0.965 H 3.124 V 1.722 H 2.93 C 2.882,2.547 2.549,2.817 1.66,2.817 H 1.613 V 0 H 2.902 C 3.921,0 4.31,0.37 4.542,1.501 H 4.745 L 4.653,-0.232 H 0 Z"
             style="fill:#575756;fill-opacity:1;fill-rule:nonzero;stroke:none"
             id="path210"
             inkscape:connector-curvature="0" /></g><g
           id="g212"
           transform="translate(294.0732,46.3093)"><path
             d="M 0,0 V 1.602 H 0.175 C 0.473,0.676 1.148,0.138 1.916,0.138 c 0.882,0 1.558,0.631 1.558,1.419 0,0.74 -0.529,0.86 -1.53,1.175 -1.259,0.399 -1.936,0.751 -1.936,1.827 0,0.981 0.703,1.694 1.78,1.694 0.777,0 1.129,-0.36 1.213,-0.36 0.02,0 0.056,0.009 0.083,0.045 L 3.259,6.133 H 3.455 V 4.744 H 3.289 C 2.992,5.615 2.464,6.05 1.686,6.05 0.98,6.05 0.444,5.566 0.444,4.965 0.444,4.446 0.824,4.16 1.62,3.946 2.334,3.752 2.899,3.632 3.289,3.335 3.688,3.029 3.9,2.565 3.9,1.982 3.9,0.731 3.112,-0.085 1.833,-0.085 0.963,-0.085 0.594,0.333 0.508,0.333 0.49,0.333 0.463,0.314 0.435,0.286 L 0.157,0 Z"
             style="fill:#575756;fill-opacity:1;fill-rule:nonzero;stroke:none"
             id="path214"
             inkscape:connector-curvature="0" /></g><g
           id="g216"
           transform="translate(304.6894,47.9655)"><path
             d="m 0,0 v -1.629 h -0.194 l -0.288,0.296 c -0.37,-0.296 -0.861,-0.445 -1.472,-0.445 -1.502,0 -2.586,1.26 -2.586,3.096 0,0.87 0.25,1.648 0.731,2.261 0.493,0.63 1.244,0.99 1.964,0.99 0.502,0 0.917,-0.148 1.347,-0.472 l 0.304,0.287 h 0.139 V 2.845 H -0.25 c -0.26,1.001 -0.824,1.521 -1.63,1.521 -1.186,0 -1.613,-1.057 -1.613,-3.224 0,-0.9 0.055,-1.549 0.324,-1.993 0.25,-0.426 0.715,-0.676 1.195,-0.676 0.88,0 1.501,0.519 1.797,1.527 z"
             style="fill:#575756;fill-opacity:1;fill-rule:nonzero;stroke:none"
             id="path218"
             inkscape:connector-curvature="0" /></g><g
           id="g220"
           transform="translate(310.6543,52.425)"><path
             d="m 0,0 v -0.233 h 0.686 v -2.576 h -2.622 v 2.576 H -1.25 V 0 h -2.299 v -0.233 h 0.689 v -5.623 h -0.689 v -0.232 h 2.299 v 0.232 h -0.686 v 2.787 H 0.686 V -5.856 H 0 v -0.232 h 2.298 v 0.232 H 1.613 v 5.623 H 2.298 V 0 Z"
             style="fill:#575756;fill-opacity:1;fill-rule:nonzero;stroke:none"
             id="path222"
             inkscape:connector-curvature="0" /></g><g
           id="g224"
           transform="translate(314.9062,52.425)"><path
             d="M 0,0 V -0.233 H 0.769 V -5.856 H 0 v -0.232 h 2.482 v 0.232 H 1.696 v 5.623 H 2.482 V 0 Z"
             style="fill:#575756;fill-opacity:1;fill-rule:nonzero;stroke:none"
             id="path226"
             inkscape:connector-curvature="0" /></g><g
           id="g228"
           transform="translate(324.6357,47.9655)"><path
             d="m 0,0 v -1.629 h -0.195 l -0.286,0.296 c -0.373,-0.296 -0.864,-0.445 -1.476,-0.445 -1.499,0 -2.584,1.26 -2.584,3.096 0,0.87 0.25,1.648 0.731,2.261 0.491,0.63 1.242,0.99 1.964,0.99 0.501,0 0.918,-0.148 1.344,-0.472 l 0.307,0.287 h 0.139 V 2.845 h -0.196 c -0.259,1.001 -0.823,1.521 -1.63,1.521 -1.185,0 -1.612,-1.057 -1.612,-3.224 0,-0.9 0.055,-1.549 0.324,-1.993 0.249,-0.426 0.713,-0.676 1.194,-0.676 0.881,0 1.502,0.519 1.798,1.527 z"
             style="fill:#575756;fill-opacity:1;fill-rule:nonzero;stroke:none"
             id="path230"
             inkscape:connector-curvature="0" /></g><g
           id="g232"
           transform="translate(330.6074,52.425)"><path
             d="m 0,0 v -0.233 h 0.687 v -2.576 h -2.623 v 2.576 h 0.687 V 0 h -2.298 v -0.233 h 0.686 v -5.623 h -0.686 v -0.232 h 2.298 v 0.232 h -0.687 v 2.787 H 0.687 V -5.856 H 0 v -0.232 h 2.301 v 0.232 H 1.615 v 5.623 H 2.301 V 0 Z"
             style="fill:#575756;fill-opacity:1;fill-rule:nonzero;stroke:none"
             id="path234"
             inkscape:connector-curvature="0" /></g><g
           id="g236"
           transform="translate(336.4365,46.5685)"><path
             d="m 0,0 h 0.769 v 5.624 c -0.112,0.01 -0.206,0.01 -0.307,0.01 -0.889,0 -1.223,-0.408 -1.453,-1.557 h -0.205 l 0.084,1.779 H 3.586 L 3.649,4.113 H 3.428 C 3.289,5.208 2.882,5.634 1.936,5.634 c -0.083,0 -0.167,0 -0.25,-0.01 V 0 h 0.751 v -0.232 l -2.437,0 z"
             style="fill:#575756;fill-opacity:1;fill-rule:nonzero;stroke:none"
             id="path238"
             inkscape:connector-curvature="0" /></g><g
           id="g240"
           transform="translate(342.4297,46.5685)"><path
             d="M 0,0 H 0.687 V 5.624 H 0 V 5.856 H 4.522 V 4.391 H 4.329 C 4.18,5.382 3.754,5.624 2.752,5.624 H 1.612 V 3.047 h 0.185 c 0.779,0 1.076,0.242 1.132,0.965 H 3.123 V 1.722 H 2.929 C 2.882,2.547 2.548,2.817 1.658,2.817 H 1.612 V 0 H 2.901 C 3.92,0 4.31,0.37 4.542,1.501 H 4.744 L 4.651,-0.232 H 0 Z"
             style="fill:#575756;fill-opacity:1;fill-rule:nonzero;stroke:none"
             id="path242"
             inkscape:connector-curvature="0" /></g><g
           id="g244"
           transform="translate(63.3857,30.7712)"><path
             d="m 0,0 c 0,-0.007 0,-0.014 0.001,-0.021 0.403,0.022 0.807,0.041 1.21,0.068 0.332,0.024 0.666,0.037 0.994,0.09 0.877,0.138 1.744,0.322 2.584,0.616 0.53,0.186 1.059,0.378 1.578,0.592 0.651,0.27 1.271,0.603 1.878,0.964 0.599,0.356 1.19,0.72 1.751,1.132 0.44,0.323 0.882,0.643 1.284,1.017 0.294,0.275 0.625,0.51 0.922,0.783 0.314,0.288 0.616,0.592 0.906,0.904 0.379,0.409 0.739,0.836 1.113,1.25 0.505,0.561 0.933,1.177 1.347,1.805 0.514,0.779 1.066,1.535 1.485,2.375 0.246,0.495 0.515,0.979 0.757,1.476 0.253,0.52 0.489,1.047 0.723,1.576 0.16,0.361 0.323,0.724 0.452,1.097 0.199,0.575 0.376,1.159 0.548,1.743 0.189,0.637 0.375,1.276 0.534,1.921 0.159,0.638 0.286,1.283 0.418,1.927 0.093,0.451 0.189,0.9 0.25,1.355 0.112,0.847 0.201,1.697 0.297,2.546 0.033,0.29 0.066,0.581 0.084,0.872 0.01,0.15 -0.041,0.306 -0.016,0.45 0.061,0.354 0.057,0.706 0.051,1.061 -0.013,0.752 -0.007,1.504 -0.021,2.256 -0.006,0.371 -0.032,0.741 -0.059,1.111 -0.025,0.347 -0.057,0.694 -0.094,1.04 -0.052,0.48 -0.105,0.96 -0.169,1.439 -0.045,0.337 -0.109,0.672 -0.166,1.008 -0.05,0.304 -0.092,0.61 -0.152,0.912 -0.091,0.451 -0.193,0.898 -0.29,1.346 -0.063,0.287 -0.119,0.575 -0.193,0.857 -0.137,0.521 -0.274,1.043 -0.431,1.558 -0.202,0.667 -0.397,1.337 -0.644,1.988 -0.264,0.694 -0.557,1.379 -0.885,2.045 -0.443,0.901 -0.863,1.816 -1.412,2.663 -0.358,0.552 -0.707,1.109 -1.064,1.661 -0.177,0.273 -0.35,0.549 -0.547,0.808 -0.311,0.408 -0.633,0.808 -0.962,1.204 -0.262,0.315 -0.529,0.627 -0.814,0.922 -0.374,0.387 -0.767,0.754 -1.151,1.131 -0.079,0.078 -0.147,0.169 -0.233,0.239 -0.496,0.405 -0.99,0.812 -1.496,1.205 C 10.063,53.229 9.74,53.444 9.421,53.664 9.239,53.789 9.05,53.906 8.86,54.019 8.358,54.32 7.861,54.632 7.348,54.911 6.537,55.353 5.672,55.675 4.801,55.968 3.991,56.239 3.162,56.436 2.307,56.536 1.63,56.615 0.955,56.7 0.273,56.698 c -0.498,-10e-4 -1,-0.005 -1.495,-0.058 -0.566,-0.06 -1.127,-0.166 -1.687,-0.27 -0.632,-0.118 -1.246,-0.304 -1.85,-0.522 -0.313,-0.114 -0.626,-0.226 -0.94,-0.339 -0.62,-0.225 -1.206,-0.53 -1.779,-0.851 -0.578,-0.325 -1.124,-0.708 -1.678,-1.075 -0.336,-0.223 -0.673,-0.448 -0.988,-0.7 -0.399,-0.319 -0.781,-0.661 -1.163,-1.002 -0.417,-0.373 -0.841,-0.741 -1.233,-1.14 -0.421,-0.428 -0.813,-0.886 -1.209,-1.337 -0.26,-0.297 -0.52,-0.595 -0.754,-0.913 -0.339,-0.458 -0.662,-0.928 -0.976,-1.403 -0.297,-0.449 -0.589,-0.902 -0.858,-1.368 -0.324,-0.563 -0.629,-1.136 -0.926,-1.713 -0.228,-0.444 -0.449,-0.892 -0.642,-1.351 -0.297,-0.709 -0.583,-1.422 -0.844,-2.145 -0.268,-0.745 -0.497,-1.503 -0.702,-2.269 -0.254,-0.95 -0.507,-1.899 -0.663,-2.869 -0.177,-1.095 -0.344,-2.19 -0.499,-3.287 -0.064,-0.446 -0.091,-0.898 -0.129,-1.348 -0.02,-0.228 -0.038,-0.458 -0.043,-0.687 -0.007,-0.421 -0.001,-0.841 -0.008,-1.262 -0.004,-0.206 -0.056,-0.413 -0.034,-0.615 0.035,-0.349 0.018,-0.695 0.026,-1.043 0.016,-0.712 0.035,-1.426 0.099,-2.134 0.075,-0.829 0.18,-1.655 0.308,-2.476 0.134,-0.858 0.31,-1.71 0.469,-2.564 0.142,-0.764 0.364,-1.507 0.583,-2.252 0.119,-0.402 0.238,-0.804 0.366,-1.204 0.119,-0.37 0.232,-0.744 0.381,-1.102 0.365,-0.878 0.732,-1.754 1.131,-2.616 0.289,-0.625 0.603,-1.241 0.955,-1.832 0.426,-0.713 0.895,-1.402 1.361,-2.091 0.274,-0.406 0.545,-0.815 0.884,-1.175 0.221,-0.235 0.397,-0.512 0.611,-0.755 0.26,-0.298 0.535,-0.583 0.812,-0.867 0.287,-0.296 0.57,-0.598 0.876,-0.873 0.404,-0.365 0.825,-0.712 1.248,-1.057 0.367,-0.3 0.742,-0.593 1.121,-0.88 0.618,-0.47 1.301,-0.842 1.975,-1.222 0.53,-0.299 1.083,-0.56 1.638,-0.813 0.38,-0.172 0.775,-0.323 1.174,-0.444 0.605,-0.18 1.207,-0.369 1.834,-0.483 C -2.091,0.131 -1.208,0.006 -0.31,0 -0.207,-0.001 -0.104,0 0,0 m 0.033,-0.38 c -0.34,0 -0.679,-0.006 -1.019,0.002 -0.173,0.003 -0.347,0.022 -0.52,0.044 -0.519,0.066 -1.04,0.118 -1.555,0.212 -0.71,0.129 -1.405,0.329 -2.087,0.565 -0.443,0.153 -0.885,0.306 -1.316,0.487 -0.35,0.148 -0.689,0.325 -1.022,0.509 -0.492,0.271 -0.984,0.543 -1.457,0.844 -0.542,0.344 -1.081,0.696 -1.587,1.088 -0.511,0.397 -0.987,0.839 -1.466,1.277 -0.426,0.39 -0.84,0.795 -1.25,1.204 -0.297,0.295 -0.588,0.598 -0.863,0.914 -0.266,0.304 -0.505,0.63 -0.758,0.944 -0.58,0.724 -1.092,1.495 -1.579,2.282 -0.29,0.471 -0.544,0.965 -0.83,1.439 -0.342,0.565 -0.595,1.173 -0.876,1.766 -0.224,0.473 -0.426,0.957 -0.609,1.446 -0.282,0.756 -0.565,1.514 -0.804,2.284 -0.249,0.8 -0.454,1.614 -0.666,2.425 -0.088,0.335 -0.154,0.677 -0.218,1.018 -0.1,0.543 -0.205,1.087 -0.283,1.633 -0.114,0.799 -0.221,1.6 -0.301,2.402 -0.07,0.7 -0.108,1.403 -0.144,2.105 -0.021,0.396 -0.011,0.793 -0.01,1.19 0,0.395 0.01,0.79 0.013,1.186 0.004,0.436 -0.004,0.873 0.009,1.31 0.011,0.347 0.042,0.695 0.07,1.042 0.029,0.363 0.054,0.726 0.098,1.087 0.056,0.472 0.125,0.943 0.195,1.412 0.056,0.376 0.119,0.751 0.186,1.125 0.111,0.622 0.22,1.245 0.343,1.865 0.172,0.863 0.415,1.708 0.669,2.549 0.262,0.864 0.559,1.715 0.886,2.557 0.251,0.643 0.525,1.272 0.847,1.883 0.081,0.154 0.133,0.322 0.21,0.478 0.255,0.509 0.505,1.02 0.779,1.519 0.193,0.354 0.414,0.693 0.634,1.032 0.276,0.423 0.564,0.84 0.847,1.259 0.38,0.567 0.817,1.091 1.246,1.62 0.219,0.272 0.495,0.494 0.705,0.766 0.312,0.405 0.705,0.726 1.04,1.107 0.224,0.253 0.489,0.473 0.744,0.697 0.329,0.287 0.661,0.569 1,0.842 0.309,0.247 0.623,0.488 0.946,0.715 0.401,0.282 0.807,0.558 1.224,0.816 0.43,0.267 0.869,0.52 1.319,0.754 0.621,0.325 1.268,0.584 1.92,0.83 0.763,0.287 1.548,0.514 2.354,0.652 0.492,0.085 0.985,0.174 1.481,0.218 0.544,0.049 1.091,0.057 1.638,0.064 0.442,0.006 0.886,-0.005 1.327,-0.029 0.276,-0.015 0.55,-0.075 0.825,-0.105 0.647,-0.073 1.278,-0.21 1.906,-0.376 0.784,-0.207 1.545,-0.477 2.285,-0.807 0.527,-0.236 1.048,-0.489 1.566,-0.746 0.191,-0.094 0.37,-0.215 0.549,-0.333 0.502,-0.329 1.009,-0.653 1.5,-0.998 0.42,-0.295 0.825,-0.611 1.216,-0.947 0.396,-0.34 0.801,-0.666 1.168,-1.04 0.38,-0.39 0.797,-0.746 1.167,-1.145 0.419,-0.452 0.805,-0.934 1.205,-1.404 0.406,-0.479 0.754,-0.999 1.096,-1.523 0.256,-0.391 0.516,-0.78 0.763,-1.176 0.254,-0.409 0.515,-0.812 0.722,-1.251 0.301,-0.636 0.639,-1.254 0.952,-1.884 0.142,-0.283 0.266,-0.576 0.392,-0.867 0.124,-0.291 0.252,-0.581 0.359,-0.88 0.189,-0.53 0.362,-1.066 0.546,-1.597 0.296,-0.853 0.542,-1.723 0.734,-2.604 0.198,-0.914 0.387,-1.83 0.549,-2.749 0.117,-0.654 0.191,-1.315 0.268,-1.975 0.061,-0.526 0.085,-1.057 0.146,-1.583 0.145,-1.257 0.089,-2.519 0.083,-3.779 -0.003,-0.52 -0.027,-1.042 -0.066,-1.562 -0.052,-0.708 -0.108,-1.416 -0.198,-2.121 -0.137,-1.067 -0.302,-2.131 -0.533,-3.183 -0.132,-0.602 -0.234,-1.212 -0.402,-1.804 -0.277,-0.973 -0.586,-1.938 -0.903,-2.899 -0.138,-0.419 -0.323,-0.822 -0.494,-1.23 -0.174,-0.417 -0.35,-0.833 -0.54,-1.243 -0.203,-0.438 -0.422,-0.87 -0.64,-1.301 C 17.578,11.577 17.382,11.214 17.19,10.85 17.157,10.787 17.125,10.723 17.086,10.664 16.717,10.101 16.354,9.534 15.973,8.979 15.562,8.379 15.153,7.775 14.665,7.231 14.332,6.861 14.011,6.479 13.681,6.106 13.482,5.882 13.285,5.653 13.068,5.446 12.806,5.195 12.524,4.966 12.251,4.727 11.854,4.378 11.461,4.023 11.056,3.682 10.809,3.473 10.545,3.282 10.285,3.088 10.146,2.985 9.994,2.899 9.855,2.795 9.33,2.396 8.752,2.079 8.178,1.762 7.624,1.457 7.056,1.172 6.477,0.917 5.686,0.57 4.872,0.277 4.03,0.078 3.337,-0.086 2.641,-0.234 1.928,-0.288 1.636,-0.31 1.347,-0.364 1.054,-0.377 0.715,-0.394 0.374,-0.381 0.033,-0.381 Z"
             style="fill:#575756;fill-opacity:1;fill-rule:evenodd;stroke:none"
             id="path246"
             inkscape:connector-curvature="0" /></g><g
           id="g248"
           transform="translate(74.1655,53.9987)"><path
             d="M 0,0 C -0.177,-0.194 -0.177,-0.194 -0.023,-0.244 -0.017,-0.174 -0.01,-0.108 0,0 M -0.158,10.144 C -0.44,9.866 -0.701,9.613 -0.87,9.234 c 0.308,0.154 0.675,0.624 0.712,0.91 m -6.611,3.245 c 0.22,0.314 0.431,0.631 0.758,0.89 0.105,-0.113 0.199,-0.205 0.281,-0.308 0.078,-0.098 0.159,-0.161 0.296,-0.16 0.345,0.004 0.455,0.367 0.369,0.601 -0.143,0.389 -0.602,0.535 -0.959,0.319 -0.236,-0.142 -0.37,-0.364 -0.505,-0.581 -0.142,-0.227 -0.222,-0.484 -0.24,-0.761 m 2.082,-7.541 c 0.056,0.093 0.115,0.186 0.169,0.282 0.172,0.305 0.561,0.375 0.842,0.157 0.058,-0.045 0.142,-0.091 0.209,-0.085 0.245,0.023 0.463,0.118 0.589,0.345 C -2.707,6.86 -2.771,7.152 -3.06,7.361 -3.12,7.405 -3.204,7.428 -3.28,7.434 -3.524,7.453 -3.745,7.371 -3.961,7.262 -4.129,7.177 -4.197,7.013 -4.294,6.872 -4.505,6.562 -4.642,6.225 -4.687,5.848 m 1.569,-9.19 c 0.11,0.217 0.248,0.407 0.429,0.578 0.208,0.197 0.433,0.341 0.71,0.404 0.295,0.067 0.296,0.063 0.46,-0.2 0.013,-0.02 0.022,-0.044 0.04,-0.059 0.108,-0.097 0.226,-0.179 0.382,-0.145 0.137,0.03 0.182,0.144 0.221,0.258 0.086,0.259 0.007,0.569 -0.2,0.735 -0.247,0.2 -0.539,0.253 -0.827,0.142 -0.684,-0.267 -1.195,-0.872 -1.215,-1.713 m -13.351,8.799 c 0.006,0.091 0.017,0.128 0.009,0.161 -0.116,0.499 -0.236,0.994 -0.532,1.429 -0.122,0.177 -0.265,0.308 -0.453,0.402 -0.404,0.203 -0.846,0.022 -0.992,-0.401 -0.139,-0.404 0.249,-0.831 0.618,-0.761 0.146,0.027 0.237,0.11 0.326,0.215 0.129,0.152 0.255,0.143 0.359,-0.023 0.147,-0.233 0.286,-0.471 0.433,-0.704 0.061,-0.096 0.133,-0.185 0.232,-0.318 m 2.122,7.608 c 0.007,0.091 0.028,0.169 0.016,0.243 -0.091,0.568 -0.28,1.098 -0.617,1.573 -0.143,0.199 -0.32,0.286 -0.562,0.285 -0.366,-0.001 -0.679,-0.276 -0.686,-0.618 -0.008,-0.37 0.299,-0.738 0.636,-0.752 0.093,-0.004 0.198,-0.003 0.279,0.035 0.183,0.082 0.309,0.005 0.416,-0.121 0.172,-0.202 0.332,-0.413 0.518,-0.645 m -3.972,-17.868 c 0.023,0.003 0.045,0.007 0.068,0.01 0.007,0.138 0.025,0.277 0.021,0.415 -0.011,0.362 0.017,0.736 -0.062,1.085 -0.096,0.427 -0.244,0.847 -0.445,1.245 -0.208,0.41 -0.538,0.62 -0.973,0.663 -0.49,0.049 -0.71,-0.155 -0.803,-0.633 -0.042,-0.215 0.037,-0.401 0.214,-0.542 0.235,-0.186 0.486,-0.217 0.752,-0.078 0.147,0.076 0.266,0.056 0.391,-0.048 0.231,-0.191 0.388,-0.427 0.511,-0.701 0.149,-0.331 0.207,-0.677 0.255,-1.029 0.018,-0.13 0.047,-0.258 0.071,-0.387 m 9.399,24.815 c 0.016,0.124 -0.051,0.208 -0.139,0.282 -0.29,0.248 -0.627,0.39 -1.002,0.451 -0.41,0.066 -0.82,0.028 -1.225,-0.027 -0.322,-0.045 -0.624,-0.177 -0.88,-0.389 -0.083,-0.069 -0.182,-0.131 -0.19,-0.253 0.886,-0.745 2.445,-0.782 3.436,-0.064 m -1.795,4.722 c 0.043,0.056 0.087,0.101 0.117,0.155 0.196,0.345 0.497,0.549 0.864,0.684 0.227,0.083 0.455,0.128 0.695,0.126 0.206,-0.003 0.276,0.064 0.272,0.269 -0.009,0.45 -0.22,0.779 -0.623,0.982 -0.028,0.014 -0.068,0.016 -0.087,0.036 -0.052,0.056 -0.12,0.114 -0.138,0.182 -0.039,0.144 -0.061,0.295 -0.071,0.444 -0.029,0.456 -0.243,0.815 -0.578,1.104 -0.283,0.245 -0.614,0.253 -0.855,0.021 -0.138,-0.133 -0.211,-0.311 -0.245,-0.504 -0.058,-0.336 -0.211,-0.61 -0.513,-0.787 -0.325,-0.189 -0.467,-0.505 -0.577,-0.84 -0.058,-0.175 -0.032,-0.22 0.154,-0.261 0.373,-0.081 0.645,-0.326 0.91,-0.572 0.175,-0.161 0.287,-0.376 0.35,-0.611 0.049,-0.182 0.148,-0.328 0.325,-0.428 m -10.258,-8.352 c 0.01,-0.018 0.019,-0.035 0.03,-0.052 0.084,0.035 0.166,0.074 0.252,0.104 0.156,0.054 0.311,0.128 0.472,0.148 0.266,0.032 0.538,0.042 0.807,0.033 0.413,-0.013 0.795,-0.168 1.133,-0.388 0.248,-0.162 0.46,-0.385 0.663,-0.604 0.288,-0.312 0.619,-0.487 1.05,-0.434 0.29,0.035 0.533,0.171 0.677,0.421 0.171,0.299 0.212,0.625 0.079,0.958 -0.224,0.566 -0.457,1.128 -0.665,1.7 -0.127,0.351 -0.172,0.716 -0.132,1.095 0.045,0.423 0.167,0.82 0.331,1.208 0.016,0.039 0.019,0.082 0.029,0.133 -0.044,0 -0.068,0.005 -0.089,-0.001 -0.331,-0.106 -0.607,-0.276 -0.711,-0.633 -0.055,-0.182 -0.157,-0.304 -0.349,-0.35 -0.084,-0.019 -0.164,-0.058 -0.243,-0.094 -0.042,-0.019 -0.092,-0.04 -0.116,-0.075 -0.149,-0.222 -0.252,-0.458 -0.169,-0.736 0.045,-0.151 0.094,-0.303 0.117,-0.459 0.034,-0.223 0.161,-0.37 0.333,-0.497 0.471,-0.348 0.72,-0.829 0.819,-1.397 0.015,-0.085 -0.005,-0.153 -0.094,-0.194 -0.083,-0.039 -0.131,10e-4 -0.187,0.054 -0.385,0.375 -0.669,0.816 -0.878,1.31 -0.031,0.075 -0.092,0.154 -0.161,0.193 -0.453,0.26 -0.928,0.296 -1.412,0.094 -0.179,-0.075 -0.328,-0.188 -0.367,-0.404 -0.023,-0.127 -0.116,-0.191 -0.243,-0.232 -0.46,-0.152 -0.777,-0.465 -0.976,-0.901 m 1.578,-3.486 c -0.523,-0.087 -0.917,-0.344 -1.236,-0.7 -0.377,-0.418 -0.549,-0.939 -0.609,-1.488 -0.022,-0.206 0.015,-0.402 0.245,-0.54 0.324,-0.194 0.626,-0.429 0.912,-0.676 0.369,-0.319 0.618,-0.737 0.869,-1.148 0.05,-0.082 0.063,-0.168 -0.01,-0.24 -0.073,-0.075 -0.163,-0.053 -0.242,-0.011 -0.084,0.043 -0.161,0.101 -0.242,0.151 -0.406,0.251 -0.78,0.546 -1.077,0.921 -0.199,0.252 -0.373,0.527 -0.541,0.802 -0.1,0.165 -0.244,0.213 -0.415,0.221 -0.192,0.008 -0.348,-0.079 -0.503,-0.186 -0.285,-0.199 -0.431,-0.528 -0.345,-0.86 0.031,-0.124 0.009,-0.21 -0.103,-0.252 -0.204,-0.076 -0.364,-0.213 -0.535,-0.339 -0.22,-0.162 -0.265,-0.41 -0.391,-0.626 0.046,-0.014 0.061,-0.023 0.076,-0.022 0.022,0.004 0.046,0.011 0.066,0.021 0.348,0.185 0.719,0.284 1.107,0.342 0.362,0.054 0.713,0.021 1.057,-0.073 0.44,-0.12 0.827,-0.343 1.196,-0.614 0.536,-0.394 1.071,-0.342 1.428,0.216 0.225,0.355 0.208,0.78 -0.055,1.079 -0.312,0.352 -0.577,0.732 -0.763,1.165 -0.189,0.439 -0.297,0.892 -0.244,1.374 0.014,0.125 0.041,0.25 0.043,0.375 0.006,0.258 0.072,0.5 0.174,0.734 0.049,0.113 0.085,0.231 0.138,0.374 M -0.1,15.99 c -0.018,0.06 -0.021,0.098 -0.039,0.128 -0.231,0.364 -0.532,0.65 -0.943,0.796 -0.141,0.05 -0.226,0.119 -0.271,0.266 -0.061,0.2 -0.201,0.334 -0.408,0.395 -0.432,0.128 -0.855,0.129 -1.274,-0.057 -0.103,-0.045 -0.169,-0.095 -0.213,-0.2 -0.216,-0.519 -0.58,-0.939 -0.934,-1.364 -0.059,-0.072 -0.129,-0.121 -0.227,-0.069 -0.096,0.053 -0.092,0.145 -0.074,0.23 0.111,0.546 0.361,1.004 0.822,1.338 0.15,0.108 0.315,0.219 0.361,0.421 0.052,0.231 0.116,0.461 0.148,0.695 0.045,0.338 -0.139,0.623 -0.454,0.746 -0.074,0.03 -0.158,0.039 -0.223,0.079 -0.069,0.043 -0.164,0.104 -0.177,0.17 -0.065,0.315 -0.305,0.471 -0.537,0.634 -0.07,0.05 -0.167,0.06 -0.287,0.1 0.02,-0.086 0.025,-0.131 0.041,-0.172 0.154,-0.393 0.248,-0.796 0.264,-1.221 0.025,-0.652 -0.133,-1.256 -0.438,-1.824 -0.197,-0.367 -0.3,-0.764 -0.405,-1.161 -0.109,-0.407 0.12,-0.823 0.467,-1.024 0.473,-0.273 1.041,-0.085 1.377,0.319 0.184,0.222 0.378,0.426 0.615,0.586 0.43,0.291 0.895,0.473 1.424,0.449 0.364,-0.016 0.726,-0.041 1.07,-0.179 0.092,-0.036 0.193,-0.05 0.315,-0.081 M 0.264,10.396 C 0.222,10.294 0.181,10.203 0.147,10.108 0.121,10.035 0.115,9.952 0.081,9.883 -0.174,9.368 -0.521,8.956 -1.109,8.808 -1.19,8.788 -1.261,8.765 -1.328,8.835 c -0.069,0.074 -0.035,0.146 0,0.219 0.186,0.385 0.429,0.732 0.724,1.038 0.16,0.165 0.344,0.305 0.509,0.465 0.053,0.051 0.111,0.128 0.113,0.194 0.013,0.454 -0.115,0.883 -0.335,1.27 -0.251,0.444 -0.641,0.761 -1.094,0.992 -0.099,0.05 -0.2,0.139 -0.337,0.071 0.201,-0.503 0.294,-1.021 0.271,-1.559 -0.039,-0.896 -0.389,-1.643 -1.024,-2.279 -0.44,-0.442 -0.454,-0.72 -0.231,-1.221 0.133,-0.3 0.389,-0.467 0.724,-0.496 0.258,-0.022 0.478,0.089 0.694,0.209 0.194,0.107 0.382,0.225 0.584,0.316 0.377,0.169 0.771,0.273 1.19,0.29 C 0.98,8.364 1.459,8.216 1.937,8.049 2.007,8.025 2.079,8.008 2.165,7.983 2.08,8.393 1.748,8.813 1.387,8.938 1.145,9.021 1.047,9.17 1.057,9.411 c 0,0.008 0,0.016 0,0.024 -0.015,0.524 -0.238,0.806 -0.793,0.961 m -23.166,-7.1 c -0.237,-0.238 -0.342,-0.512 -0.405,-0.807 -0.004,-0.02 0.017,-0.045 0.021,-0.068 0.053,-0.397 0.277,-0.673 0.601,-0.892 0.223,-0.151 0.438,-0.317 0.637,-0.497 0.361,-0.328 0.654,-0.71 0.818,-1.177 0.071,-0.201 0.127,-0.408 0.176,-0.616 0.035,-0.147 -0.031,-0.322 -0.115,-0.363 -0.187,-0.092 -0.471,0.028 -0.524,0.232 -0.032,0.121 -0.037,0.249 -0.06,0.373 -0.044,0.231 -0.075,0.468 -0.143,0.692 -0.07,0.235 -0.156,0.476 -0.336,0.648 -0.182,0.173 -0.388,0.327 -0.599,0.466 -0.17,0.112 -0.354,0.213 -0.568,0.224 -0.258,0.012 -0.503,-0.051 -0.674,-0.238 -0.21,-0.231 -0.432,-0.479 -0.305,-0.842 0.007,-0.022 0.005,-0.048 0.007,-0.071 0.019,-0.21 -0.047,-0.288 -0.249,-0.329 -0.146,-0.03 -0.293,-0.066 -0.43,-0.124 -0.443,-0.185 -0.755,-0.512 -0.95,-0.948 -0.111,-0.249 -0.173,-0.511 -0.162,-0.814 0.151,0.127 0.279,0.232 0.403,0.34 0.526,0.456 1.151,0.711 1.828,0.782 0.847,0.089 1.627,-0.127 2.312,-0.671 0.24,-0.19 0.535,-0.308 0.865,-0.147 0.112,0.055 0.164,0.144 0.229,0.231 0.29,0.384 0.385,0.807 0.249,1.275 -0.093,0.321 -0.274,0.589 -0.516,0.814 -0.482,0.449 -0.802,0.994 -0.959,1.631 -0.054,0.221 -0.076,0.452 -0.091,0.679 -0.027,0.406 0.029,0.802 0.181,1.182 0.088,0.221 0.175,0.443 0.271,0.686 -0.324,-0.019 -0.611,-0.065 -0.828,-0.294 -0.384,-0.403 -0.514,-0.877 -0.374,-1.413 -0.123,-0.113 -0.221,-0.099 -0.31,0.056 M 0.023,5.069 C 0.07,4.896 0.113,4.728 0.16,4.563 0.251,4.25 0.304,3.932 0.285,3.606 0.277,3.464 0.259,3.322 0.238,3.182 0.222,3.065 0.212,2.943 0.168,2.836 0.054,2.56 -0.083,2.292 -0.2,2.017 -0.359,1.643 -0.576,1.306 -0.833,0.993 -1.271,0.458 -1.335,-0.063 -1.044,-0.606 c 0.277,-0.519 0.966,-0.734 1.377,-0.596 0.267,0.09 0.503,0.224 0.734,0.383 0.201,0.138 0.411,0.279 0.639,0.357 0.373,0.125 0.78,0.113 1.154,0.042 C 3.257,-0.496 3.645,-0.668 3.918,-1.012 4,-1.113 4.115,-1.188 4.243,-1.301 4.26,-1.188 4.295,-1.106 4.277,-1.038 4.222,-0.825 4.175,-0.602 4.072,-0.411 3.877,-0.048 3.554,0.175 3.167,0.313 2.938,0.394 2.934,0.421 2.998,0.663 3.067,0.924 2.988,1.112 2.75,1.243 2.688,1.277 2.62,1.303 2.551,1.324 2.046,1.477 1.569,1.419 1.124,1.125 0.666,0.824 0.355,0.427 0.285,-0.133 0.276,-0.211 0.256,-0.291 0.222,-0.361 0.144,-0.519 -0.047,-0.58 -0.232,-0.519 c -0.148,0.049 -0.22,0.181 -0.187,0.365 0.01,0.061 0.032,0.124 0.063,0.177 C -0.09,0.48 0.276,0.848 0.681,1.182 0.93,1.387 1.218,1.549 1.395,1.833 1.78,2.456 1.879,3.111 1.614,3.806 1.577,3.9 1.518,3.986 1.475,4.079 1.272,4.519 0.928,4.808 0.493,4.993 0.358,5.05 0.223,5.129 0.023,5.069 m -6.637,20.268 c -0.03,0.049 -0.04,0.081 -0.062,0.098 -0.472,0.353 -1.069,0.507 -1.66,0.146 -0.224,-0.138 -0.437,-0.214 -0.693,-0.133 -0.036,0.012 -0.08,0.015 -0.117,0.008 -0.575,-0.113 -1.066,-0.346 -1.34,-0.91 -0.065,-0.135 -0.066,-0.242 0.004,-0.377 0.086,-0.167 0.166,-0.348 0.196,-0.53 0.057,-0.351 0.011,-0.696 -0.205,-0.995 -0.085,-0.118 -0.264,-0.109 -0.327,0.023 -0.067,0.143 -0.124,0.293 -0.16,0.446 -0.069,0.3 -0.028,0.601 0.057,0.89 0.062,0.208 0.048,0.387 -0.079,0.561 -0.041,0.058 -0.076,0.121 -0.116,0.179 -0.192,0.279 -0.47,0.459 -0.731,0.666 -0.437,0.347 -0.954,0.445 -1.472,0.452 -0.499,0.007 -0.973,-0.192 -1.414,-0.433 -0.119,-0.065 -0.215,-0.152 -0.291,-0.286 0.149,-0.025 0.278,-0.061 0.408,-0.064 0.71,-0.013 1.269,-0.345 1.765,-0.816 0.436,-0.415 0.606,-0.952 0.692,-1.526 0.044,-0.301 0.13,-0.588 0.285,-0.851 0.349,-0.592 1.045,-0.979 1.759,-0.633 0.289,0.141 0.526,0.337 0.646,0.657 0.091,0.243 0.123,0.488 0.134,0.743 0.02,0.481 0.155,0.939 0.401,1.347 0.184,0.302 0.436,0.568 0.729,0.775 0.184,0.13 0.362,0.268 0.589,0.348 0.317,0.112 0.644,0.147 1.002,0.215 m 3.798,-38.352 c -0.012,0.11 -0.019,0.188 -0.028,0.266 -0.056,0.471 -0.111,0.942 -0.167,1.414 -0.038,0.322 -0.077,0.643 -0.119,0.964 -0.049,0.369 -0.106,0.735 -0.152,1.103 -0.048,0.383 -0.078,0.769 -0.132,1.151 -0.05,0.36 -0.121,0.716 -0.181,1.074 -0.133,0.787 -0.263,1.575 -0.396,2.362 -0.067,0.397 -0.138,0.793 -0.206,1.19 -0.064,0.373 -0.121,0.747 -0.19,1.119 -0.076,0.405 -0.165,0.806 -0.241,1.21 -0.066,0.349 -0.121,0.7 -0.184,1.05 -0.06,0.326 -0.131,0.65 -0.185,0.977 -0.076,0.476 -0.128,0.957 -0.215,1.431 -0.141,0.77 -0.3,1.537 -0.452,2.305 -0.041,0.201 -0.085,0.402 -0.127,0.603 -0.047,0.231 -0.09,0.463 -0.14,0.692 -0.068,0.309 -0.146,0.615 -0.208,0.924 -0.097,0.479 -0.179,0.961 -0.278,1.44 -0.128,0.627 -0.277,1.249 -0.399,1.877 -0.124,0.632 -0.318,1.243 -0.552,1.838 -0.349,0.891 -0.745,1.764 -1.262,2.575 -0.196,0.307 -0.401,0.608 -0.617,0.9 -0.234,0.318 -0.482,0.627 -0.733,0.932 -0.1,0.12 -0.207,0.26 -0.341,0.319 -0.142,0.062 -0.175,0.144 -0.175,0.269 0.001,0.551 0.005,1.103 0.008,1.655 0,0.063 0.005,0.128 -0.005,0.189 -0.018,0.132 -0.06,0.15 -0.242,0.155 -0.118,0.002 -0.181,-0.04 -0.182,-0.162 -0.002,-0.198 -0.009,-0.395 -0.009,-0.594 10e-4,-0.411 0.003,-0.822 0.009,-1.234 0.003,-0.178 -0.048,-0.299 -0.233,-0.364 -0.099,-0.033 -0.194,-0.115 -0.26,-0.2 -0.354,-0.464 -0.701,-0.935 -1.045,-1.407 -0.163,-0.224 -0.322,-0.451 -0.469,-0.686 -0.113,-0.181 -0.195,-0.381 -0.305,-0.563 -0.34,-0.573 -0.625,-1.172 -0.852,-1.797 -0.23,-0.632 -0.431,-1.272 -0.576,-1.931 -0.2,-0.909 -0.436,-1.81 -0.646,-2.717 -0.238,-1.031 -0.466,-2.065 -0.696,-3.098 -0.087,-0.394 -0.173,-0.788 -0.254,-1.182 -0.093,-0.457 -0.177,-0.916 -0.27,-1.373 -0.129,-0.634 -0.269,-1.265 -0.394,-1.899 -0.081,-0.41 -0.137,-0.824 -0.214,-1.235 -0.156,-0.821 -0.322,-1.64 -0.476,-2.462 -0.102,-0.536 -0.189,-1.073 -0.282,-1.611 -0.066,-0.382 -0.13,-0.763 -0.195,-1.146 -0.107,-0.638 -0.215,-1.275 -0.321,-1.914 -0.069,-0.414 -0.139,-0.826 -0.201,-1.241 -0.091,-0.611 -0.171,-1.223 -0.261,-1.833 -0.069,-0.468 -0.148,-0.935 -0.217,-1.403 -0.026,-0.183 0.033,-0.226 0.231,-0.199 0.877,0.12 1.753,0.253 2.632,0.354 0.739,0.084 1.481,0.132 2.221,0.193 0.277,0.023 0.554,0.033 0.831,0.053 0.387,0.028 0.773,0.078 1.16,0.086 0.659,0.015 1.319,0.013 1.978,0.002 0.656,-0.011 1.312,0.033 1.969,-0.038 0.464,-0.052 0.935,-0.035 1.402,-0.056 0.308,-0.015 0.615,-0.045 0.922,-0.065 0.093,-0.007 0.187,-0.008 0.28,-0.01 0.063,-10e-4 0.127,0.009 0.189,0.002 0.172,-0.02 0.343,-0.048 0.515,-0.07 0.485,-0.062 0.971,-0.127 1.457,-0.182 0.146,-0.016 0.296,-0.002 0.481,-0.002 M -24.655,0.307 c 0,0.098 -0.003,0.176 0,0.254 0.009,0.281 0.079,0.526 0.26,0.766 0.215,0.287 0.501,0.364 0.812,0.429 0.046,0.01 0.093,0.018 0.138,0.031 0.013,0.004 0.023,0.02 0.052,0.047 -0.021,0.065 -0.042,0.139 -0.069,0.21 -0.104,0.269 -0.126,0.541 -0.02,0.813 0.101,0.258 0.193,0.523 0.447,0.682 0.101,0.063 0.14,0.153 0.148,0.277 0.027,0.441 0.229,0.804 0.55,1.098 0.084,0.077 0.205,0.116 0.313,0.163 0.277,0.121 0.569,0.128 0.864,0.092 0.127,-0.016 0.163,-0.072 0.131,-0.195 -0.021,-0.075 -0.051,-0.155 -0.099,-0.213 -0.224,-0.275 -0.28,-0.614 -0.38,-0.938 -0.211,-0.681 -0.057,-1.322 0.228,-1.937 0.191,-0.409 0.474,-0.763 0.806,-1.076 0.437,-0.413 0.574,-0.93 0.492,-1.515 -0.018,-0.124 -0.044,-0.247 -0.066,-0.37 0.22,-0.035 0.422,-0.061 0.623,-0.099 0.412,-0.077 0.682,-0.348 0.891,-0.688 0.209,-0.341 0.322,-0.72 0.422,-1.104 0.021,-0.081 0.052,-0.159 0.085,-0.256 0.143,0.09 0.128,0.222 0.15,0.327 0.104,0.48 0.196,0.962 0.285,1.445 0.103,0.559 0.192,1.121 0.3,1.679 0.102,0.52 0.224,1.037 0.333,1.555 0.114,0.542 0.223,1.086 0.335,1.629 0.019,0.092 0.05,0.183 0.072,0.275 0.098,0.408 0.095,0.81 -0.038,1.215 -0.113,0.342 -0.289,0.649 -0.455,0.963 -0.022,0.04 -0.061,0.071 -0.097,0.112 -0.291,-0.158 -0.598,-0.157 -0.905,-0.097 -0.297,0.059 -0.493,0.247 -0.582,0.536 -0.05,0.156 -0.084,0.317 -0.129,0.488 -0.024,0 -0.06,0.011 -0.084,-0.002 -0.215,-0.109 -0.446,-0.09 -0.676,-0.099 -0.27,-0.011 -0.494,0.091 -0.705,0.239 -0.264,0.187 -0.502,0.417 -0.819,0.519 -0.408,0.132 -0.814,0.236 -1.257,0.165 -0.457,-0.075 -0.864,-0.241 -1.237,-0.508 -0.038,-0.028 -0.079,-0.053 -0.12,-0.076 -0.146,-0.081 -0.25,-0.03 -0.263,0.135 -0.039,0.485 0.079,0.935 0.369,1.32 0.129,0.171 0.326,0.298 0.508,0.422 0.121,0.081 0.177,0.168 0.17,0.31 -0.03,0.691 0.688,1.213 1.257,1.108 0.03,-0.005 0.061,0.004 0.099,0.007 0.025,0.207 0.043,0.409 0.075,0.611 0.062,0.412 0.23,0.776 0.457,1.127 0.301,0.466 0.748,0.716 1.233,0.912 0.171,0.069 0.372,0.074 0.56,0.086 0.144,0.008 0.198,-0.078 0.143,-0.221 -0.079,-0.206 -0.186,-0.403 -0.261,-0.611 -0.243,-0.679 -0.274,-1.364 -0.004,-2.042 0.109,-0.271 0.241,-0.536 0.39,-0.786 0.094,-0.162 0.229,-0.303 0.362,-0.436 0.285,-0.283 0.442,-0.613 0.421,-1.02 -0.005,-0.093 -10e-4,-0.186 -10e-4,-0.292 0.081,0.004 0.127,0.001 0.171,0.009 0.464,0.083 0.961,-0.137 1.196,-0.547 0.133,-0.233 0.265,-0.47 0.367,-0.718 0.074,-0.181 0.099,-0.381 0.146,-0.572 0.019,-0.08 0.038,-0.159 0.058,-0.239 0.016,-0.002 0.034,-0.004 0.049,-0.006 0.027,0.062 0.063,0.121 0.078,0.185 0.122,0.507 0.24,1.016 0.359,1.524 0.163,0.693 0.324,1.386 0.49,2.078 0.128,0.537 0.257,1.075 0.396,1.609 0.068,0.26 0.152,0.518 0.243,0.771 0.109,0.308 0.014,0.595 -0.08,0.879 -0.053,0.155 -0.148,0.295 -0.225,0.442 -0.042,0.081 -0.113,0.119 -0.198,0.1 -0.228,-0.055 -0.439,0.031 -0.654,0.075 -0.084,0.018 -0.166,0.086 -0.231,0.149 -0.119,0.114 -0.242,0.23 -0.333,0.367 -0.148,0.222 -0.13,0.483 -0.126,0.738 0.002,0.053 10e-4,0.107 10e-4,0.188 -0.092,0.003 -0.176,0.012 -0.259,0.008 -0.391,-0.023 -0.724,0.07 -1.005,0.373 -0.222,0.242 -0.431,0.513 -0.737,0.665 -0.204,0.102 -0.409,0.21 -0.625,0.277 -0.431,0.136 -0.866,0.091 -1.273,-0.091 -0.233,-0.105 -0.437,-0.275 -0.653,-0.419 -0.046,-0.03 -0.081,-0.077 -0.129,-0.103 -0.123,-0.069 -0.227,-0.016 -0.235,0.12 -0.03,0.54 0.123,1.029 0.495,1.418 0.174,0.182 0.376,0.364 0.646,0.424 0.134,0.029 0.21,0.108 0.25,0.252 0.044,0.164 0.164,0.283 0.322,0.359 0.453,0.217 0.919,0.291 1.408,0.137 0.036,-0.012 0.077,-0.01 0.137,-0.017 0,0.07 0.009,0.131 -0.002,0.188 -0.023,0.117 -0.057,0.231 -0.088,0.346 -0.117,0.432 0.059,0.912 0.429,1.145 0.071,0.045 0.162,0.063 0.246,0.083 0.13,0.029 0.21,0.098 0.244,0.229 0.149,0.563 0.613,0.698 1.097,0.803 0.172,0.037 0.298,-0.009 0.349,-0.206 -0.073,-0.129 -0.15,-0.268 -0.229,-0.404 -0.234,-0.404 -0.304,-0.859 -0.313,-1.305 -0.007,-0.374 0.101,-0.751 0.258,-1.105 0.184,-0.411 0.362,-0.827 0.515,-1.252 0.125,-0.348 0.147,-0.711 0.023,-1.071 -0.02,-0.058 -0.033,-0.118 -0.052,-0.19 0.057,-0.019 0.1,-0.045 0.142,-0.045 0.433,0.006 0.705,-0.225 0.899,-0.586 0.246,-0.457 0.455,-0.925 0.461,-1.458 10e-4,-0.034 0.023,-0.069 0.041,-0.117 0.147,0.085 0.191,0.223 0.256,0.344 0.215,0.405 0.395,0.833 0.648,1.215 0.3,0.453 0.593,0.917 0.98,1.31 0.221,0.224 0.384,0.51 0.62,0.713 0.197,0.169 0.228,0.351 0.225,0.577 -0.006,0.451 0,0.901 -0.002,1.352 0,0.086 -0.011,0.171 -0.018,0.256 -0.122,0.033 -0.226,0.072 -0.333,0.089 -0.296,0.048 -0.519,0.222 -0.743,0.401 -0.25,0.201 -0.245,0.798 0.012,0.96 0.208,0.13 0.385,0.303 0.636,0.361 0.122,0.029 0.233,0.096 0.384,0.161 -0.05,0.055 -0.083,0.1 -0.126,0.135 -0.297,0.251 -0.606,0.499 -0.726,0.888 -0.076,0.248 -0.137,0.506 -0.169,0.764 -0.087,0.692 -0.446,1.213 -0.997,1.607 -0.553,0.394 -1.174,0.535 -1.848,0.407 -0.069,-0.013 -0.143,-0.024 -0.212,-0.014 -0.14,0.019 -0.189,0.135 -0.095,0.238 0.134,0.146 0.278,0.282 0.426,0.412 0.289,0.254 0.628,0.416 0.991,0.533 0.059,0.019 0.115,0.055 0.166,0.092 0.273,0.192 0.579,0.288 0.908,0.325 0.225,0.025 0.262,0.044 0.297,0.267 0.06,0.37 0.25,0.663 0.49,0.93 0.068,0.076 0.162,0.127 0.248,0.184 0.174,0.113 0.288,0.262 0.336,0.468 0.035,0.153 0.088,0.303 0.142,0.451 0.147,0.403 0.662,0.655 1.072,0.553 0.176,-0.044 0.347,-0.159 0.49,-0.278 0.442,-0.368 0.702,-0.832 0.661,-1.429 -0.01,-0.154 0.052,-0.236 0.201,-0.304 0.382,-0.177 0.615,-0.487 0.692,-0.905 0.023,-0.125 0.038,-0.251 0.061,-0.405 0.08,0.013 0.159,0.011 0.228,0.038 0.374,0.149 0.746,0.096 1.118,-0.009 0.447,-0.126 0.745,-0.431 0.978,-0.813 0.086,-0.141 0.038,-0.236 -0.133,-0.267 C -6.387,24.839 -6.567,24.812 -6.747,24.788 -7.273,24.716 -7.689,24.446 -8.051,24.073 -8.513,23.598 -8.733,23.011 -8.788,22.367 -8.829,21.895 -9,21.512 -9.37,21.218 c -0.103,-0.081 -0.211,-0.156 -0.346,-0.255 0.161,-0.074 0.299,-0.147 0.443,-0.202 0.216,-0.083 0.381,-0.233 0.512,-0.411 0.227,-0.308 0.142,-0.685 -0.184,-0.91 -0.21,-0.145 -0.431,-0.264 -0.683,-0.323 -0.207,-0.049 -0.24,-0.112 -0.238,-0.312 0.005,-0.455 0.003,-0.91 0.006,-1.366 0,-0.062 0.021,-0.127 0.012,-0.188 -0.036,-0.231 0.047,-0.378 0.28,-0.437 0.043,-0.011 0.084,-0.046 0.115,-0.082 0.627,-0.723 1.203,-1.484 1.67,-2.324 0.158,-0.283 0.316,-0.566 0.477,-0.846 0.042,-0.074 0.096,-0.14 0.163,-0.237 0.045,0.066 0.081,0.103 0.097,0.148 0.037,0.105 0.072,0.211 0.093,0.319 0.062,0.332 0.249,0.596 0.444,0.858 0.213,0.284 0.486,0.448 0.849,0.44 0.024,-10e-4 0.048,0.003 0.071,0.009 0.014,0.003 0.027,0.013 0.05,0.026 -0.026,0.143 -0.061,0.287 -0.078,0.433 -0.033,0.263 0.011,0.516 0.075,0.775 0.086,0.352 0.252,0.665 0.407,0.986 0.232,0.479 0.372,0.984 0.366,1.512 -0.003,0.442 -0.075,0.885 -0.335,1.271 -0.056,0.084 -0.105,0.179 -0.134,0.276 -0.034,0.122 0.03,0.205 0.152,0.21 0.347,0.015 0.652,-0.083 0.907,-0.331 0.17,-0.166 0.346,-0.323 0.425,-0.561 0.015,-0.046 0.089,-0.096 0.141,-0.102 0.251,-0.026 0.443,-0.163 0.559,-0.361 0.15,-0.253 0.232,-0.538 0.145,-0.843 -0.039,-0.137 -0.07,-0.276 -0.102,-0.415 -0.008,-0.036 -10e-4,-0.076 -10e-4,-0.143 0.089,0.015 0.164,0.022 0.236,0.04 0.436,0.111 0.855,0.016 1.261,-0.124 0.176,-0.061 0.323,-0.203 0.37,-0.404 0.024,-0.104 0.075,-0.169 0.177,-0.2 0.362,-0.111 0.636,-0.351 0.874,-0.629 C 0.083,16.309 0.2,16.064 0.238,15.79 0.262,15.625 0.285,15.46 0.294,15.293 0.296,15.241 0.268,15.162 0.227,15.137 c -0.04,-0.024 -0.121,-0.01 -0.17,0.016 -0.076,0.039 -0.145,0.097 -0.209,0.156 -0.48,0.438 -1.05,0.571 -1.676,0.473 -0.385,-0.06 -0.761,-0.168 -1.068,-0.429 -0.108,-0.093 -0.206,-0.199 -0.297,-0.308 -0.398,-0.476 -0.888,-0.7 -1.513,-0.56 -0.015,0.003 -0.031,-0.003 -0.06,-0.006 -0.019,-0.159 -0.029,-0.323 -0.06,-0.483 -0.084,-0.443 -0.514,-0.713 -0.943,-0.593 -0.166,0.046 -0.328,0.111 -0.504,0.171 -0.144,-0.161 -0.229,-0.353 -0.296,-0.57 -0.174,-0.552 -0.018,-1.062 0.146,-1.578 0.231,-0.724 0.401,-1.464 0.542,-2.21 0.094,-0.505 0.212,-1.005 0.314,-1.508 0.095,-0.473 0.174,-0.95 0.277,-1.421 0.045,-0.202 0.059,-0.418 0.186,-0.623 0.146,0.375 0.273,0.729 0.425,1.072 0.086,0.195 0.203,0.377 0.325,0.553 0.11,0.159 0.268,0.267 0.463,0.31 0.223,0.047 0.446,0.096 0.669,0.145 0.005,0.031 0.016,0.056 0.01,0.076 -0.175,0.646 0.048,1.165 0.511,1.607 0.307,0.293 0.57,0.627 0.722,1.017 0.197,0.511 0.318,1.041 0.236,1.604 -0.056,0.381 -0.194,0.731 -0.333,1.085 -0.083,0.211 -0.023,0.288 0.206,0.272 0.376,-0.026 0.707,-0.178 1.001,-0.4 0.35,-0.263 0.654,-0.579 0.856,-0.972 0.135,-0.26 0.224,-0.537 0.234,-0.837 C 0.227,11.017 0.258,10.838 0.276,10.674 0.31,10.652 0.323,10.637 0.336,10.636 0.692,10.623 0.909,10.381 1.111,10.14 1.202,10.032 1.233,9.871 1.285,9.731 1.3,9.688 1.294,9.637 1.296,9.59 1.303,9.371 1.383,9.237 1.601,9.121 2.11,8.85 2.412,8.392 2.519,7.825 2.554,7.634 2.536,7.429 2.517,7.232 2.5,7.049 2.366,7.008 2.213,7.123 2.037,7.255 1.867,7.401 1.678,7.513 1.125,7.839 0.529,7.873 -0.09,7.755 -0.435,7.69 -0.739,7.542 -1.015,7.339 -1.393,7.062 -1.804,6.946 -2.268,7.009 -2.306,7.015 -2.346,7.007 -2.385,7 -2.398,6.999 -2.41,6.983 -2.449,6.955 -2.375,6.465 -2.485,6.007 -2.974,5.765 -3.43,5.539 -3.882,5.596 -4.251,5.962 -4.286,5.951 -4.309,5.95 -4.313,5.941 -4.434,5.677 -4.585,5.426 -4.649,5.138 -4.699,4.907 -4.766,4.679 -4.806,4.447 -4.871,4.071 -4.759,3.709 -4.698,3.345 -4.613,2.838 -4.526,2.332 -4.434,1.826 -4.359,1.413 -4.275,1.002 -4.198,0.59 c 0.113,-0.606 0.224,-1.212 0.334,-1.819 0.097,-0.535 0.188,-1.073 0.287,-1.609 0.022,-0.119 0.064,-0.233 0.098,-0.35 0.016,0.001 0.033,0.003 0.049,0.004 0.037,0.124 0.076,0.249 0.111,0.374 0.194,0.678 0.63,1.147 1.27,1.413 0.171,0.071 0.388,0.032 0.584,0.041 0.084,0.004 0.169,0.001 0.282,0.001 -0.038,0.076 -0.057,0.126 -0.087,0.169 -0.289,0.413 -0.403,0.853 -0.228,1.347 0.066,0.185 0.089,0.39 0.179,0.561 0.128,0.245 0.284,0.478 0.455,0.696 0.347,0.444 0.558,0.957 0.76,1.472 0.133,0.343 0.196,0.706 0.119,1.071 -0.081,0.386 -0.191,0.766 -0.292,1.147 -0.051,0.195 -0.007,0.276 0.193,0.267 C 0.095,5.367 0.28,5.34 0.451,5.285 1.276,5.024 1.731,4.426 1.95,3.614 2.034,3.3 2.007,2.992 1.972,2.675 1.936,2.352 1.834,2.06 1.685,1.777 1.672,1.751 1.672,1.719 1.662,1.672 1.737,1.667 1.797,1.665 1.857,1.66 2.117,1.634 2.381,1.625 2.636,1.577 3.037,1.5 3.298,1.146 3.287,0.738 c -10e-4,-0.055 0,-0.11 0,-0.172 C 3.328,0.545 3.369,0.519 3.412,0.503 3.64,0.42 3.814,0.271 3.994,0.107 4.241,-0.119 4.374,-0.388 4.478,-0.691 4.575,-0.976 4.544,-1.257 4.472,-1.533 4.409,-1.773 4.246,-1.813 4.077,-1.631 3.887,-1.428 3.701,-1.226 3.446,-1.101 2.903,-0.833 2.354,-0.713 1.75,-0.919 1.416,-1.034 1.158,-1.248 0.884,-1.444 0.407,-1.784 -0.1,-1.852 -0.648,-1.662 c -0.029,0.01 -0.06,0.012 -0.131,0.027 0.038,-0.091 0.058,-0.162 0.094,-0.225 0.248,-0.437 0.038,-0.984 -0.3,-1.233 -0.393,-0.29 -0.871,-0.186 -1.11,0.24 -0.02,0.035 -0.038,0.069 -0.058,0.106 -0.101,0.042 -0.161,-0.027 -0.226,-0.086 -0.286,-0.253 -0.477,-0.553 -0.568,-0.937 -0.088,-0.37 -0.148,-0.742 -0.199,-1.118 -0.042,-0.311 0.015,-0.615 0.063,-0.919 0.083,-0.539 0.182,-1.075 0.266,-1.614 0.114,-0.735 0.224,-1.471 0.33,-2.206 0.064,-0.447 0.115,-0.895 0.177,-1.342 0.102,-0.73 0.21,-1.459 0.309,-2.189 0.026,-0.196 0.042,-0.395 0.039,-0.592 -0.004,-0.235 -0.217,-0.477 -0.452,-0.513 -0.225,-0.034 -0.455,-0.041 -0.682,-0.064 -0.237,-0.024 -0.473,-0.052 -0.709,-0.08 -0.597,-0.072 -1.195,-0.149 -1.794,-0.213 -0.18,-0.02 -0.364,10e-4 -0.546,-0.008 -0.626,-0.03 -1.251,-0.07 -1.876,-0.097 -0.57,-0.025 -1.14,-0.051 -1.71,-0.052 -0.546,-0.002 -1.092,0.03 -1.638,0.044 -0.206,0.005 -0.412,-0.006 -0.617,0.002 -0.554,0.024 -1.108,0.048 -1.66,0.085 -0.695,0.045 -1.389,0.099 -2.082,0.157 -0.536,0.044 -1.071,0.089 -1.604,0.153 -0.589,0.07 -1.176,0.162 -1.765,0.245 -0.062,0.009 -0.125,0.021 -0.186,0.04 -0.177,0.055 -0.279,0.18 -0.296,0.363 -0.008,0.094 0,0.191 0.013,0.284 0.085,0.628 0.168,1.256 0.26,1.882 0.104,0.714 0.218,1.426 0.326,2.139 0.056,0.376 0.103,0.753 0.163,1.129 0.078,0.484 0.166,0.968 0.244,1.452 0.031,0.195 0.058,0.391 0.067,0.588 0.022,0.507 -0.013,1.012 -0.1,1.513 -0.048,0.274 -0.085,0.549 -0.14,0.82 -0.043,0.219 -0.127,0.422 -0.296,0.61 -0.092,-0.042 -0.182,-0.088 -0.275,-0.125 -0.393,-0.15 -0.781,-0.169 -1.13,0.104 -0.315,0.246 -0.507,0.558 -0.451,0.983 0.015,0.116 0.002,0.235 0.002,0.367 -0.029,0.005 -0.069,0.024 -0.102,0.016 -0.38,-0.085 -0.724,0.021 -1.049,0.205 -0.466,0.264 -0.955,0.453 -1.493,0.507 -0.362,0.037 -0.708,-0.012 -1.054,-0.118 -0.526,-0.163 -0.975,-0.45 -1.38,-0.814 -0.102,-0.091 -0.209,-0.17 -0.369,-0.136 -0.153,0.6 -0.055,1.166 0.278,1.674 0.33,0.502 0.8,0.827 1.41,0.915"
             style="fill:#575756;fill-opacity:1;fill-rule:evenodd;stroke:none"
             id="path250"
             inkscape:connector-curvature="0" /></g><g
           id="g252"
           transform="translate(79.6138,70.7951)"><path
             d="M 0,0 C -0.007,0.073 -0.015,0.135 -0.018,0.196 -0.029,0.42 -0.093,0.511 -0.297,0.588 -0.458,0.648 -0.651,0.595 -0.771,0.456 -0.992,0.201 -1.036,-0.19 -0.874,-0.503 c 0.174,-0.335 0.495,-0.487 0.845,-0.466 0.328,0.02 0.618,0.167 0.85,0.388 0.125,0.118 0.201,0.302 0.262,0.469 0.174,0.485 0.188,0.98 0.005,1.466 C 0.994,1.605 0.871,1.845 0.757,2.088 0.595,2.433 0.437,2.779 0.262,3.117 0.082,3.469 -0.14,3.802 -0.299,4.163 -0.444,4.491 -0.63,4.792 -0.814,5.096 -1.123,5.602 -1.431,6.108 -1.756,6.604 -1.978,6.94 -2.223,7.263 -2.465,7.585 -2.75,7.964 -3.042,8.338 -3.336,8.71 c -0.083,0.104 -0.19,0.188 -0.281,0.288 -0.251,0.274 -0.49,0.559 -0.75,0.824 -0.237,0.243 -0.489,0.473 -0.747,0.695 -0.823,0.707 -1.679,1.374 -2.561,2.006 -0.262,0.189 -0.545,0.351 -0.827,0.51 -0.484,0.271 -0.963,0.552 -1.464,0.787 -0.819,0.384 -1.66,0.719 -2.537,0.951 -0.344,0.091 -0.695,0.156 -1.045,0.216 -0.406,0.069 -0.814,0.134 -1.223,0.173 -0.4,0.038 -0.803,0.045 -1.204,0.062 -0.196,0.007 -0.393,0.015 -0.588,0.006 -0.253,-0.011 -0.505,-0.033 -0.757,-0.062 -0.416,-0.049 -0.835,-0.092 -1.248,-0.166 -0.921,-0.163 -1.81,-0.437 -2.682,-0.784 -0.619,-0.248 -1.218,-0.533 -1.804,-0.848 -0.286,-0.153 -0.559,-0.333 -0.83,-0.513 -0.501,-0.333 -1.004,-0.662 -1.491,-1.014 -0.32,-0.233 -0.615,-0.499 -0.917,-0.755 -0.252,-0.215 -0.504,-0.433 -0.747,-0.659 -0.351,-0.329 -0.698,-0.662 -1.038,-1.003 -0.194,-0.194 -0.382,-0.399 -0.553,-0.614 -0.38,-0.475 -0.759,-0.95 -1.117,-1.442 -0.358,-0.492 -0.696,-1 -1.031,-1.51 -0.217,-0.33 -0.413,-0.675 -0.62,-1.012 -0.107,-0.176 -0.227,-0.345 -0.322,-0.527 -0.331,-0.631 -0.661,-1.262 -0.978,-1.901 -0.086,-0.174 -0.112,-0.379 -0.188,-0.561 -0.218,-0.518 -0.281,-1.072 -0.348,-1.619 -0.087,-0.715 0.63,-1.519 1.513,-1.215 0.594,0.205 0.786,1.043 0.329,1.413 -0.042,0.034 -0.088,0.068 -0.137,0.092 -0.131,0.062 -0.262,0.061 -0.383,-0.027 -0.117,-0.087 -0.166,-0.19 -0.131,-0.35 0.053,-0.243 -0.059,-0.349 -0.294,-0.318 -0.108,0.013 -0.179,0.065 -0.198,0.172 -0.112,0.608 0.147,1.253 0.968,1.252 0.497,-10e-4 0.864,-0.315 0.901,-0.841 0.026,-0.357 0.058,-0.707 -0.13,-1.042 -0.105,-0.188 -0.252,-0.324 -0.412,-0.449 -0.124,-0.097 -0.269,-0.169 -0.409,-0.24 -0.098,-0.051 -0.201,-0.092 -0.32,-0.052 -0.05,0.018 -0.116,0.022 -0.164,0.004 -0.236,-0.092 -0.429,0.047 -0.627,0.123 -0.133,0.05 -0.245,0.162 -0.362,0.252 -0.05,0.038 -0.088,0.092 -0.13,0.138 -0.239,0.257 -0.337,0.564 -0.337,0.91 0,0.404 0.061,0.8 0.137,1.195 0.143,0.737 0.434,1.42 0.778,2.082 0.255,0.49 0.483,0.991 0.795,1.453 0.398,0.589 0.735,1.22 1.136,1.809 0.387,0.568 0.737,1.163 1.192,1.684 0.219,0.25 0.411,0.524 0.632,0.77 0.354,0.393 0.714,0.78 1.087,1.154 0.239,0.24 0.508,0.449 0.76,0.676 0.246,0.221 0.484,0.45 0.733,0.668 0.188,0.165 0.384,0.323 0.584,0.473 0.38,0.285 0.757,0.573 1.15,0.837 0.348,0.235 0.715,0.441 1.076,0.655 0.655,0.388 1.342,0.716 2.046,1.001 0.549,0.223 1.113,0.423 1.685,0.569 0.603,0.154 1.226,0.227 1.838,0.343 0.548,0.105 1.105,0.095 1.657,0.132 0.283,0.018 0.569,-0.025 0.854,-0.041 0.095,-0.004 0.189,-0.007 0.285,-0.01 0.754,-0.021 1.492,-0.163 2.232,-0.298 0.375,-0.068 0.735,-0.18 1.098,-0.296 0.559,-0.179 1.107,-0.384 1.643,-0.619 0.355,-0.155 0.702,-0.33 1.046,-0.509 0.357,-0.186 0.713,-0.376 1.054,-0.587 0.336,-0.207 0.661,-0.432 0.977,-0.668 0.519,-0.387 1.043,-0.772 1.537,-1.19 0.568,-0.482 1.123,-0.981 1.651,-1.505 0.42,-0.416 0.806,-0.87 1.182,-1.327 C -2.401,8.132 -2.137,7.714 -1.835,7.328 -1.229,6.551 -0.757,5.69 -0.25,4.852 -0.083,4.576 0.059,4.285 0.204,3.996 0.528,3.353 0.853,2.71 1.164,2.061 1.306,1.763 1.458,1.465 1.511,1.13 1.529,1.02 1.56,0.92 1.522,0.805 1.499,0.733 1.501,0.646 1.515,0.569 1.596,0.109 1.443,-0.313 1.204,-0.67 0.984,-0.998 0.627,-1.213 0.21,-1.261 -0.031,-1.288 -0.267,-1.33 -0.516,-1.239 -0.811,-1.133 -1.022,-0.935 -1.197,-0.703 -1.48,-0.325 -1.579,0.1 -1.44,0.574 -1.319,0.991 -0.885,1.312 -0.451,1.294 0.045,1.273 0.439,0.833 0.46,0.397 0.478,0.06 0.371,-0.047 0,0"
             style="fill:#575756;fill-opacity:1;fill-rule:evenodd;stroke:none"
             id="path254"
             inkscape:connector-curvature="0" /></g><g
           id="g256"
           transform="translate(60.9809,34.3347)"><path
             d="M 0,0 C -0.009,0.064 -0.023,0.125 -0.026,0.186 -0.031,0.334 0.015,0.407 0.13,0.445 0.277,0.493 0.377,0.463 0.467,0.352 0.653,0.125 0.604,-0.112 0.483,-0.338 0.377,-0.536 0.211,-0.651 -0.035,-0.643 -0.43,-0.63 -0.62,-0.472 -0.701,-0.08 -0.817,0.487 -0.565,0.995 -0.126,1.278 0.37,1.6 0.877,1.549 1.351,1.237 1.626,1.055 1.779,0.774 1.849,0.453 c 0.116,-0.53 0.035,-1.02 -0.294,-1.462 -0.156,-0.21 -0.356,-0.362 -0.594,-0.46 -0.546,-0.226 -1.112,-0.376 -1.707,-0.38 -0.331,-0.003 -0.667,0.003 -0.993,0.054 -0.326,0.052 -0.653,0.137 -0.961,0.255 -0.517,0.198 -1.029,0.415 -1.525,0.661 -0.488,0.243 -0.965,0.515 -1.426,0.805 -0.503,0.316 -0.989,0.658 -1.47,1.007 -0.281,0.203 -0.541,0.438 -0.804,0.666 -0.304,0.264 -0.605,0.534 -0.904,0.806 -0.268,0.245 -0.546,0.482 -0.793,0.747 -0.356,0.379 -0.691,0.779 -1.03,1.173 -0.171,0.198 -0.343,0.396 -0.5,0.605 -0.3,0.398 -0.601,0.797 -0.881,1.21 -0.346,0.51 -0.667,1.038 -1.006,1.553 -0.366,0.558 -0.677,1.145 -0.963,1.746 -0.044,0.094 -0.097,0.183 -0.138,0.276 -0.317,0.708 -0.653,1.408 -0.94,2.127 -0.243,0.61 -0.448,1.237 -0.634,1.866 -0.262,0.888 -0.518,1.779 -0.724,2.68 -0.193,0.84 -0.368,1.684 -0.466,2.543 -0.042,0.369 -0.121,0.733 -0.166,1.102 -0.035,0.29 -0.04,0.584 -0.063,0.875 -0.027,0.347 -0.063,0.694 -0.089,1.041 -0.022,0.292 -0.041,0.584 -0.05,0.876 -0.019,0.57 -0.045,1.139 -0.041,1.709 0.003,0.783 0.009,1.567 0.055,2.348 0.044,0.758 0.137,1.514 0.214,2.27 0.036,0.362 0.06,0.728 0.134,1.083 0.118,0.572 0.259,1.141 0.419,1.703 0.122,0.425 0.277,0.842 0.442,1.252 0.065,0.164 0.18,0.319 0.307,0.444 0.213,0.211 0.435,0.42 0.714,0.545 0.227,0.102 0.464,0.149 0.715,0.097 0.377,-0.076 0.72,-0.212 0.93,-0.555 0.093,-0.153 0.167,-0.326 0.207,-0.5 0.075,-0.325 0.097,-0.654 -0.038,-0.977 -0.08,-0.191 -0.177,-0.362 -0.319,-0.519 -0.322,-0.359 -0.862,-0.378 -1.224,-0.161 -0.259,0.154 -0.498,0.378 -0.438,0.752 0.019,0.115 -0.009,0.237 0.007,0.352 0.024,0.179 0.102,0.333 0.26,0.436 0.02,0.013 0.037,0.031 0.057,0.042 0.12,0.064 0.312,0.035 0.373,-0.056 0.058,-0.086 0.029,-0.241 -0.08,-0.333 -0.113,-0.093 -0.115,-0.197 -0.067,-0.319 0.122,-0.303 0.435,-0.397 0.701,-0.208 0.304,0.216 0.546,0.638 0.363,1.108 -0.057,0.147 -0.171,0.293 -0.299,0.388 -0.414,0.306 -0.84,0.298 -1.245,-0.021 -0.332,-0.262 -0.592,-0.572 -0.745,-0.989 -0.197,-0.536 -0.351,-1.084 -0.504,-1.633 -0.19,-0.688 -0.289,-1.394 -0.358,-2.104 -0.021,-0.212 -0.063,-0.423 -0.083,-0.635 -0.013,-0.141 0.004,-0.284 -0.006,-0.426 -0.014,-0.189 -0.045,-0.377 -0.063,-0.566 -0.016,-0.174 -0.029,-0.348 -0.039,-0.521 -0.031,-0.577 -0.067,-1.153 -0.088,-1.729 -0.01,-0.278 0.004,-0.556 0.011,-0.833 0.008,-0.34 0.011,-0.68 0.03,-1.019 0.036,-0.625 0.078,-1.25 0.126,-1.874 0.037,-0.488 0.076,-0.976 0.135,-1.461 0.069,-0.559 0.147,-1.117 0.247,-1.67 0.127,-0.701 0.265,-1.4 0.422,-2.094 0.115,-0.501 0.266,-0.994 0.405,-1.489 0.112,-0.396 0.219,-0.795 0.349,-1.185 0.17,-0.51 0.344,-1.02 0.546,-1.519 0.24,-0.593 0.505,-1.178 0.775,-1.759 0.2,-0.429 0.436,-0.843 0.641,-1.27 0.321,-0.673 0.727,-1.295 1.129,-1.918 0.389,-0.605 0.807,-1.194 1.246,-1.763 0.39,-0.507 0.825,-0.978 1.24,-1.466 0.152,-0.179 0.291,-0.373 0.457,-0.54 0.211,-0.212 0.443,-0.404 0.667,-0.604 0.259,-0.232 0.516,-0.469 0.78,-0.694 0.562,-0.478 1.141,-0.931 1.767,-1.323 0.455,-0.285 0.9,-0.59 1.36,-0.868 0.263,-0.158 0.544,-0.292 0.826,-0.416 0.537,-0.234 1.071,-0.48 1.624,-0.67 0.332,-0.112 0.696,-0.143 1.048,-0.18 0.461,-0.048 0.919,0.005 1.363,0.136 0.242,0.072 0.477,0.171 0.713,0.264 0.271,0.107 0.367,0.363 0.476,0.598 C 1.601,-0.02 1.251,0.612 0.96,0.821 0.71,1 0.438,1.001 0.176,0.852 -0.087,0.702 -0.209,0.458 -0.212,0.159 -0.214,0.042 -0.184,0.025 0,0"
             style="fill:#575756;fill-opacity:1;fill-rule:evenodd;stroke:none"
             id="path258"
             inkscape:connector-curvature="0" /></g><g
           id="g260"
           transform="translate(65.6875,34.3205)"><path
             d="M 0,0 C 0.109,-0.036 0.178,-0.019 0.198,0.1 0.23,0.303 0.194,0.489 0.066,0.657 -0.19,0.993 -0.609,1.092 -0.914,0.847 -1.253,0.574 -1.591,-0.02 -1.333,-0.546 c 0.169,-0.349 0.402,-0.571 0.767,-0.683 0.372,-0.115 0.745,-0.222 1.134,-0.258 0.445,-0.042 0.885,-0.012 1.32,0.096 0.322,0.079 0.648,0.146 0.967,0.232 0.184,0.049 0.367,0.11 0.538,0.19 0.465,0.219 0.934,0.434 1.385,0.681 0.507,0.278 1.014,0.56 1.487,0.891 0.62,0.435 1.212,0.913 1.805,1.387 0.407,0.325 0.803,0.664 1.186,1.017 0.278,0.257 0.536,0.539 0.785,0.826 0.477,0.549 0.95,1.102 1.405,1.669 0.288,0.358 0.545,0.741 0.806,1.118 0.207,0.298 0.417,0.597 0.598,0.911 0.332,0.575 0.646,1.16 0.963,1.743 0.174,0.321 0.349,0.641 0.505,0.97 0.202,0.429 0.401,0.861 0.575,1.302 0.291,0.737 0.562,1.481 0.84,2.223 0.026,0.065 0.049,0.133 0.068,0.202 0.164,0.586 0.338,1.17 0.49,1.759 0.128,0.497 0.235,0.999 0.345,1.5 0.103,0.47 0.228,0.939 0.289,1.415 0.098,0.761 0.266,1.512 0.299,2.283 0.021,0.475 0.101,0.946 0.13,1.42 0.033,0.536 0.034,1.074 0.056,1.611 0.013,0.301 0.049,0.599 0.061,0.899 0.007,0.173 -0.016,0.346 -0.023,0.519 -0.013,0.299 -0.048,0.599 -0.029,0.895 0.025,0.39 -0.033,0.772 -0.06,1.157 -0.023,0.339 -0.054,0.677 -0.095,1.014 -0.092,0.739 -0.176,1.479 -0.293,2.215 -0.089,0.553 -0.236,1.098 -0.334,1.651 -0.061,0.341 -0.147,0.668 -0.356,0.946 -0.294,0.393 -0.665,0.675 -1.168,0.739 -0.213,0.027 -0.411,-0.042 -0.594,-0.135 -0.246,-0.124 -0.432,-0.317 -0.575,-0.552 -0.081,-0.132 -0.075,-0.282 -0.034,-0.416 0.097,-0.32 0.257,-0.592 0.609,-0.701 0.306,-0.096 0.66,0.182 0.632,0.504 -0.004,0.039 -0.007,0.079 -0.01,0.114 -0.014,0.016 -0.021,0.031 -0.034,0.041 -0.148,0.106 -0.187,0.206 -0.117,0.305 0.075,0.106 0.314,0.105 0.43,-0.012 0.055,-0.055 0.098,-0.126 0.132,-0.197 0.27,-0.566 0.1,-1.072 -0.428,-1.352 -0.351,-0.186 -0.878,-0.036 -1.132,0.2 -0.423,0.393 -0.503,0.88 -0.397,1.416 0.113,0.574 0.475,0.911 1.035,1.049 0.1,0.024 0.197,0.059 0.298,0.076 0.405,0.069 0.747,-0.099 1.067,-0.311 0.322,-0.213 0.561,-0.511 0.761,-0.837 0.04,-0.067 0.062,-0.147 0.079,-0.224 0.124,-0.588 0.262,-1.175 0.364,-1.767 0.135,-0.788 0.257,-1.579 0.358,-2.373 0.077,-0.596 0.143,-1.197 0.162,-1.798 0.033,-1.021 0.031,-2.044 0.031,-3.066 0,-0.492 -0.017,-0.984 -0.048,-1.475 -0.028,-0.449 -0.085,-0.897 -0.128,-1.345 -0.03,-0.306 -0.05,-0.615 -0.088,-0.921 C 17.437,19.824 17.374,19.433 17.317,19.041 17.281,18.79 17.257,18.537 17.208,18.29 17.102,17.756 16.987,17.225 16.868,16.694 16.754,16.186 16.639,15.677 16.51,15.172 16.391,14.705 16.275,14.235 16.118,13.78 15.856,13.024 15.58,12.273 15.277,11.533 15.011,10.882 14.719,10.239 14.405,9.609 14.104,9.009 13.759,8.431 13.433,7.844 13.281,7.568 13.131,7.291 12.971,7.02 12.862,6.836 12.741,6.661 12.618,6.485 12.39,6.162 12.165,5.835 11.925,5.521 11.718,5.252 11.492,4.998 11.274,4.736 11.011,4.42 10.764,4.088 10.481,3.79 10.101,3.391 9.766,2.948 9.317,2.613 9.077,2.434 8.881,2.197 8.649,2.006 8.143,1.592 7.629,1.184 7.11,0.784 6.805,0.548 6.495,0.315 6.168,0.11 5.583,-0.254 4.99,-0.602 4.358,-0.881 4.01,-1.035 3.673,-1.214 3.326,-1.368 3.175,-1.436 3.012,-1.485 2.85,-1.519 2.354,-1.622 1.857,-1.725 1.357,-1.807 c -0.492,-0.081 -0.98,-0.01 -1.462,0.1 -0.193,0.043 -0.382,0.102 -0.574,0.153 -0.511,0.134 -0.841,0.486 -1.087,0.928 -0.055,0.099 -0.06,0.228 -0.08,0.344 -0.083,0.486 0.014,0.949 0.304,1.333 0.303,0.4 0.753,0.507 1.242,0.424 C -0.089,1.438 0.107,1.368 0.28,1.224 0.54,1.007 0.663,0.723 0.728,0.409 0.756,0.271 0.754,0.124 0.75,-0.018 0.737,-0.36 0.542,-0.513 0.219,-0.598 c -0.268,-0.07 -0.491,0.02 -0.657,0.256 -0.123,0.174 -0.11,0.579 0.04,0.734 0.093,0.095 0.218,0.115 0.324,0.051 C 0.042,0.375 0.075,0.285 0.037,0.142 0.024,0.097 0.013,0.052 0,0"
             style="fill:#575756;fill-opacity:1;fill-rule:evenodd;stroke:none"
             id="path262"
             inkscape:connector-curvature="0" /></g><g
           id="g264"
           transform="translate(62.5649,55.9108)"><path
             d="M 0,0 C 0.534,-0.044 1.05,-0.015 1.581,-0.021 1.575,0.048 1.584,0.091 1.568,0.123 1.463,0.343 1.355,0.563 1.242,0.78 1.222,0.819 1.176,0.852 1.134,0.871 0.875,0.978 0.608,1.053 0.326,1.025 0.151,1.008 0.005,0.891 0.002,0.765 -0.005,0.52 0,0.274 0,0 M 0.024,1.71 C 0.363,1.71 0.655,1.702 0.946,1.715 1.024,1.718 1.115,1.771 1.172,1.828 1.333,1.991 1.464,2.176 1.546,2.396 1.748,2.937 1.584,3.422 1.315,3.886 1.249,4 1.132,4.083 0.982,4.086 0.873,4.087 0.76,4.099 0.651,4.089 0.244,4.055 0.022,3.817 0.014,3.407 0.005,3.036 0,2.664 0,2.292 0,2.105 0.016,1.918 0.024,1.71 m 0.904,-2.254 v -0.004 c -0.222,0 -0.443,0.003 -0.665,0 C 0.026,-0.551 0,-0.577 -0.001,-0.804 c -0.001,-0.421 -0.023,-0.842 0.006,-1.26 0.032,-0.447 0.093,-0.893 0.178,-1.332 0.048,-0.25 0.224,-0.439 0.489,-0.492 0.213,-0.042 0.476,-0.004 0.661,0.304 0.236,0.39 0.385,0.812 0.464,1.255 0.094,0.531 0.112,1.067 0.037,1.604 -0.021,0.141 -0.049,0.176 -0.196,0.179 -0.237,0.005 -0.474,0.002 -0.71,0.002 M -2.541,4.79 c 0.061,0.089 0.119,0.154 0.154,0.23 0.129,0.28 0.312,0.517 0.554,0.703 0.212,0.164 0.448,0.272 0.727,0.152 0.257,-0.11 0.3,-0.35 0.074,-0.512 C -1.365,5.125 -1.571,4.79 -1.776,4.451 -1.809,4.398 -1.833,4.336 -1.846,4.275 -1.94,3.835 -2.059,3.402 -2.05,2.942 -2.035,2.23 -2.052,1.518 -2.049,0.805 c 10e-4,-0.173 0.02,-0.347 0.044,-0.518 0.026,-0.183 0.157,-0.283 0.327,-0.292 0.315,-0.015 0.631,-0.004 0.967,-0.004 0.016,0.077 0.044,0.152 0.044,0.227 0.004,0.739 0.004,1.476 0.005,2.214 0,0.436 0.011,0.872 -0.006,1.307 -0.006,0.16 -0.082,0.318 -0.123,0.477 -0.019,0.076 -0.046,0.154 -0.043,0.228 0.004,0.142 0.059,0.199 0.2,0.218 0.133,0.018 0.268,0.029 0.402,0.031 0.44,0.003 0.88,0.004 1.32,-10e-4 C 1.353,4.688 1.584,4.567 1.78,4.408 1.961,4.261 2.108,4.068 2.263,3.889 2.313,3.83 2.354,3.755 2.377,3.681 2.548,3.136 2.571,2.599 2.318,2.063 2.167,1.74 1.917,1.525 1.639,1.317 1.603,1.204 1.677,1.13 1.756,1.061 2.05,0.799 2.297,0.505 2.423,0.124 2.454,0.03 2.516,-0.017 2.617,-0.017 c 0.238,-10e-4 0.476,-0.011 0.715,-0.005 0.165,0.004 0.191,0.036 0.2,0.198 0.007,0.119 0.004,0.239 0.005,0.358 0,0.617 -10e-4,1.235 10e-4,1.853 C 3.539,2.743 3.541,3.1 3.55,3.456 3.558,3.754 3.489,4.032 3.377,4.306 3.277,4.549 3.171,4.785 2.983,4.975 2.896,5.064 2.821,5.161 2.662,5.119 2.511,5.079 2.357,5.109 2.26,5.251 2.151,5.41 2.245,5.561 2.313,5.699 2.387,5.851 2.544,5.897 2.696,5.871 2.881,5.838 3.058,5.778 3.228,5.68 3.565,5.486 3.83,5.221 4.069,4.923 4.088,4.899 4.117,4.881 4.158,4.846 4.214,4.88 4.272,4.915 4.33,4.951 4.499,5.055 4.686,5.085 4.877,5.071 5.063,5.058 5.12,4.923 5.01,4.77 4.971,4.715 4.912,4.666 4.851,4.635 4.583,4.5 4.495,4.275 4.496,3.991 4.499,3.228 4.494,2.466 4.494,1.704 4.494,0.825 4.498,-0.053 4.496,-0.931 4.494,-1.749 4.489,-2.566 4.48,-3.384 4.477,-3.74 4.589,-4.062 4.719,-4.389 4.886,-4.813 5.2,-5.064 5.597,-5.236 5.696,-5.278 5.809,-5.289 5.916,-5.314 6.031,-5.342 6.149,-5.359 6.258,-5.402 6.378,-5.451 6.446,-5.592 6.432,-5.713 6.417,-5.849 6.319,-5.95 6.172,-5.98 5.702,-6.076 5.243,-6.063 4.813,-5.825 4.465,-5.632 4.228,-5.327 3.999,-4.983 3.918,-5.051 3.848,-5.124 3.766,-5.179 3.51,-5.35 3.251,-5.516 2.991,-5.679 2.885,-5.746 2.777,-5.722 2.683,-5.646 2.55,-5.54 2.541,-5.36 2.686,-5.233 c 0.194,0.17 0.332,0.379 0.486,0.58 0.248,0.325 0.347,0.694 0.357,1.084 0.017,0.657 0.007,1.316 0.004,1.973 -10e-4,0.277 -10e-4,0.554 -0.021,0.829 -0.015,0.213 -0.035,0.22 -0.251,0.223 -0.167,0.002 -0.334,0 -0.493,0 C 2.693,-0.623 2.688,-0.695 2.705,-0.791 2.821,-1.457 2.791,-2.11 2.574,-2.759 2.468,-3.08 2.321,-3.381 2.121,-3.634 1.895,-3.921 1.646,-4.196 1.336,-4.417 1.101,-4.585 0.859,-4.688 0.583,-4.741 c -0.405,-0.077 -0.784,0.027 -1.159,0.158 -0.06,0.021 -0.116,0.053 -0.173,0.08 -0.244,0.118 -0.326,0.338 -0.156,0.54 0.206,0.243 0.251,0.505 0.245,0.809 -0.014,0.718 -0.003,1.437 -0.002,2.156 0,0.048 0.001,0.096 -0.001,0.143 -0.009,0.291 -0.059,0.332 -0.339,0.309 -0.155,-0.013 -0.311,-0.01 -0.467,-0.016 -0.086,-0.004 -0.174,-0.004 -0.258,-0.02 -0.197,-0.036 -0.318,-0.183 -0.319,-0.381 -0.004,-0.522 -0.004,-1.044 -0.005,-1.566 -10e-4,-0.323 -0.018,-0.645 0.004,-0.966 0.036,-0.566 0.22,-1.081 0.584,-1.525 0.055,-0.067 0.112,-0.135 0.157,-0.209 0.056,-0.09 0.084,-0.194 0.022,-0.291 -0.067,-0.107 -0.182,-0.122 -0.296,-0.102 -0.068,0.012 -0.14,0.036 -0.201,0.069 -0.172,0.095 -0.34,0.2 -0.511,0.299 -0.047,0.028 -0.097,0.051 -0.134,0.07 -0.198,-0.186 -0.385,-0.364 -0.574,-0.54 -0.252,-0.232 -0.547,-0.377 -0.885,-0.429 -0.062,-0.011 -0.127,-0.019 -0.188,-0.01 -0.109,0.016 -0.227,0.029 -0.254,0.171 -0.023,0.123 0.037,0.254 0.149,0.327 0.185,0.12 0.378,0.229 0.55,0.366 0.451,0.361 0.723,0.825 0.789,1.409 0.039,0.352 0.092,0.702 0.078,1.058 -0.01,0.251 -0.018,0.502 -0.019,0.753 0,0.222 0.017,0.443 0.018,0.664 0.002,1.595 0.004,3.189 -0.002,4.784 -0.001,0.194 -0.042,0.394 -0.097,0.581 -0.056,0.193 -0.246,0.282 -0.392,0.401 -0.006,0.005 -0.014,0.008 -0.021,0.01 -0.115,0.053 -0.269,0.097 -0.228,0.256 0.039,0.149 0.163,0.258 0.327,0.277 0.206,0.023 0.413,0.023 0.634,-0.104"
             style="fill:#575756;fill-opacity:1;fill-rule:evenodd;stroke:none"
             id="path266"
             inkscape:connector-curvature="0" /></g><g
           id="g268"
           transform="translate(68.812,45.4445)"><path
             d="M 0,0 C -0.15,-0.092 -0.282,-0.499 -0.258,-0.742 0.033,-0.789 0.033,-0.789 0.228,-0.72 0.152,-0.482 0.077,-0.244 0,0 m -0.448,-1.295 c -0.048,-0.199 -0.095,-0.382 -0.135,-0.567 -0.046,-0.218 -0.003,-0.306 0.19,-0.421 0.094,-0.055 0.161,-0.188 0.131,-0.282 -0.035,-0.106 -0.115,-0.174 -0.228,-0.172 -0.109,10e-4 -0.218,0.026 -0.328,0.039 -0.141,0.017 -0.283,0.049 -0.423,0.045 -0.133,-0.004 -0.24,0.059 -0.36,0.083 -0.144,0.029 -0.297,0.012 -0.446,0.017 -0.269,0.011 -0.538,0.02 -0.806,0.036 -0.191,0.011 -0.283,0.096 -0.288,0.25 -0.004,0.126 0.045,0.199 0.177,0.242 0.278,0.089 0.362,0.216 0.361,0.51 -10e-4,0.592 -0.004,1.184 -0.01,1.777 -10e-4,0.073 -0.019,0.146 -0.036,0.269 -0.073,-0.076 -0.122,-0.106 -0.14,-0.15 -0.202,-0.487 -0.399,-0.977 -0.598,-1.466 -0.11,-0.273 -0.131,-0.329 -0.369,-0.329 -0.144,0.27 -0.297,0.552 -0.445,0.837 -0.142,0.274 -0.25,0.568 -0.496,0.84 -0.022,-0.164 -0.051,-0.277 -0.05,-0.389 0.003,-0.46 0.012,-0.919 0.028,-1.378 0.003,-0.091 0.035,-0.184 0.069,-0.27 0.047,-0.119 0.13,-0.183 0.272,-0.187 0.163,-0.005 0.218,-0.074 0.222,-0.218 0.004,-0.161 -0.052,-0.243 -0.224,-0.24 -0.362,0.008 -0.724,0.032 -1.087,0.014 -0.058,-0.003 -0.119,0.033 -0.172,0.05 -0.053,0.281 -0.056,0.285 0.169,0.401 0.128,0.065 0.185,0.15 0.185,0.299 0,0.911 0.007,1.822 0.015,2.733 0.002,0.186 -0.051,0.34 -0.19,0.466 -0.053,0.047 -0.1,0.103 -0.142,0.16 -0.097,0.137 -0.043,0.267 0.119,0.295 0.015,0.002 0.032,0.002 0.047,10e-4 0.308,-0.025 0.615,-0.053 0.922,-0.076 0.098,-0.007 0.149,-0.05 0.19,-0.145 0.22,-0.505 0.449,-1.006 0.678,-1.508 0.024,-0.053 0.069,-0.098 0.127,-0.177 0.119,0.273 0.23,0.516 0.33,0.763 0.118,0.293 0.219,0.593 0.339,0.887 0.023,0.054 0.092,0.107 0.151,0.126 0.088,0.027 0.187,0.035 0.281,0.033 0.245,-0.004 0.492,-0.004 0.734,-0.031 0.224,-0.025 0.257,-0.138 0.116,-0.32 -0.067,-0.086 -0.138,-0.171 -0.2,-0.261 -0.2,-0.29 -0.196,-0.627 -0.196,-0.956 0,-0.385 0.038,-0.771 0.046,-1.156 0.005,-0.253 -0.014,-0.507 -0.022,-0.76 -0.007,-0.186 0.07,-0.338 0.185,-0.476 0.186,-0.221 0.401,-0.169 0.586,0.086 0.079,0.11 0.114,0.26 0.147,0.396 0.166,0.697 0.326,1.394 0.485,2.092 0.074,0.322 0.143,0.646 0.21,0.97 0.017,0.082 0.061,0.134 0.138,0.142 0.131,0.014 0.263,0.016 0.406,0.023 C 0.266,1.529 0.311,1.429 0.344,1.325 0.652,0.344 0.958,-0.638 1.265,-1.619 1.325,-1.815 1.384,-2.011 1.445,-2.207 1.5,-2.382 1.554,-2.55 1.743,-2.64 1.85,-2.691 1.919,-3.036 1.837,-3.119 1.782,-3.174 1.67,-3.19 1.583,-3.193 1.518,-3.195 1.446,-3.155 1.384,-3.121 c -0.305,0.167 -0.629,0.254 -0.98,0.232 -0.106,-0.006 -0.207,0.006 -0.238,0.141 -0.04,0.171 -0.008,0.266 0.128,0.34 0.366,0.203 0.366,0.203 0.254,0.609 -0.034,0.122 -0.069,0.244 -0.114,0.362 -0.019,0.047 -0.059,0.099 -0.103,0.12 -0.117,0.058 -0.616,0.067 -0.779,0.022"
             style="fill:#575756;fill-opacity:1;fill-rule:evenodd;stroke:none"
             id="path270"
             inkscape:connector-curvature="0" /></g><g
           id="g272"
           transform="translate(64.0122,66.0412)"><path
             d="m 0,0 c 0.004,0.286 -0.225,0.516 -0.515,0.516 -0.252,0 -0.497,-0.235 -0.484,-0.49 0.015,-0.294 0.166,-0.527 0.521,-0.523 C -0.185,-0.493 -0.029,-0.274 0,0 m -0.964,-1.117 c -0.253,-0.173 -0.445,-0.309 -0.643,-0.437 -0.179,-0.116 -0.364,-0.222 -0.545,-0.335 -0.087,-0.055 -0.173,-0.095 -0.252,0.005 -0.072,0.091 -0.036,0.176 0.023,0.261 0.168,0.24 0.336,0.479 0.5,0.723 0.079,0.116 0.147,0.239 0.237,0.388 -0.105,0.042 -0.179,0.085 -0.257,0.102 -0.318,0.067 -0.638,0.123 -0.955,0.187 -0.139,0.029 -0.286,0.053 -0.346,0.219 0.052,0.13 0.146,0.179 0.288,0.203 0.38,0.064 0.757,0.152 1.134,0.232 0.036,0.007 0.07,0.027 0.13,0.053 -0.082,0.141 -0.15,0.272 -0.23,0.395 -0.161,0.245 -0.328,0.485 -0.492,0.726 -0.062,0.09 -0.102,0.187 -0.032,0.284 0.048,0.067 0.205,0.063 0.309,-0.005 0.279,-0.182 0.553,-0.37 0.829,-0.555 0.078,-0.053 0.157,-0.105 0.265,-0.178 0.038,0.11 0.079,0.201 0.098,0.296 0.064,0.324 0.117,0.652 0.178,0.978 0.01,0.053 0.02,0.12 0.057,0.153 0.053,0.048 0.126,0.09 0.197,0.102 0.092,0.015 0.115,-0.073 0.127,-0.142 C -0.276,2.181 -0.21,1.823 -0.149,1.465 -0.131,1.363 -0.131,1.258 0.008,1.183 0.118,1.255 0.243,1.334 0.365,1.418 0.592,1.575 0.817,1.735 1.045,1.892 1.07,1.91 1.102,1.918 1.131,1.931 1.216,1.966 1.305,1.986 1.375,1.913 1.455,1.83 1.424,1.735 1.37,1.651 1.231,1.439 1.088,1.23 0.949,1.019 0.838,0.851 0.731,0.681 0.598,0.474 0.816,0.427 0.999,0.389 1.181,0.35 1.466,0.288 1.751,0.225 2.037,0.166 2.115,0.15 2.176,0.124 2.172,0.033 2.168,-0.05 2.143,-0.12 2.044,-0.142 1.946,-0.166 1.85,-0.209 1.75,-0.228 1.479,-0.282 1.206,-0.321 0.935,-0.379 0.834,-0.402 0.705,-0.406 0.671,-0.577 0.862,-0.863 1.064,-1.165 1.265,-1.466 1.313,-1.539 1.371,-1.61 1.398,-1.69 1.417,-1.749 1.418,-1.847 1.383,-1.881 1.345,-1.918 1.24,-1.93 1.19,-1.903 c -0.188,0.099 -0.368,0.216 -0.546,0.331 -0.18,0.117 -0.352,0.244 -0.532,0.357 -0.115,0.071 -0.196,0.034 -0.223,-0.101 -0.053,-0.263 -0.094,-0.529 -0.143,-0.792 -0.022,-0.117 -0.055,-0.231 -0.079,-0.347 -0.023,-0.115 -0.081,-0.192 -0.206,-0.189 -0.12,0.004 -0.156,0.096 -0.174,0.194 -0.054,0.287 -0.104,0.575 -0.157,0.863 -0.026,0.136 -0.054,0.273 -0.094,0.47"
             style="fill:#575756;fill-opacity:1;fill-rule:evenodd;stroke:none"
             id="path274"
             inkscape:connector-curvature="0" /></g><g
           id="g276"
           transform="translate(57.4702,45.0046)"><path
             d="M 0,0 C 0.328,-0.073 0.418,-0.073 0.588,-0.017 0.736,0.032 0.838,0.137 0.95,0.241 1.317,0.587 1.239,0.893 1.038,1.245 0.977,1.352 0.868,1.413 0.734,1.398 0.586,1.381 0.436,1.368 0.288,1.34 0.137,1.312 0.112,1.269 0.099,1.116 0.089,0.99 0.069,0.865 0.059,0.74 0.038,0.497 0.02,0.253 0,0 M 1.086,-0.328 C 1.147,-0.417 1.204,-0.51 1.271,-0.596 1.469,-0.852 1.672,-1.104 1.873,-1.359 1.961,-1.471 2.039,-1.592 2.139,-1.691 2.196,-1.749 2.288,-1.772 2.366,-1.808 2.506,-1.871 2.552,-1.946 2.534,-2.085 2.518,-2.215 2.417,-2.261 2.315,-2.262 2.034,-2.263 1.767,-2.333 1.497,-2.395 1.436,-2.409 1.369,-2.404 1.307,-2.396 c -0.138,0.018 -0.22,0.121 -0.176,0.25 0.066,0.196 -0.02,0.325 -0.131,0.47 -0.254,0.333 -0.493,0.678 -0.737,1.018 -0.028,0.038 -0.05,0.083 -0.084,0.115 -0.096,0.09 -0.195,0.063 -0.22,-0.068 -0.026,-0.137 -0.032,-0.278 -0.045,-0.417 -0.022,-0.22 -0.047,-0.44 -0.062,-0.661 -0.015,-0.214 0.009,-0.413 0.241,-0.519 0.115,-0.052 0.153,-0.153 0.13,-0.278 -0.025,-0.129 -0.121,-0.161 -0.229,-0.164 -0.35,-0.009 -0.664,-0.135 -0.973,-0.281 -0.186,-0.087 -0.321,-0.071 -0.382,0.043 -0.065,0.123 -0.019,0.283 0.133,0.388 0.2,0.138 0.304,0.307 0.354,0.557 0.069,0.339 0.049,0.678 0.093,1.016 0.043,0.328 0.065,0.659 0.093,0.989 0.022,0.276 0.045,0.552 0.061,0.828 0.01,0.181 -0.028,0.336 -0.203,0.449 -0.143,0.093 -0.1,0.363 0.064,0.433 0.099,0.043 0.214,0.059 0.322,0.062 C -0.183,1.843 0.08,1.832 0.34,1.841 0.514,1.846 0.687,1.874 0.86,1.888 1.105,1.908 1.351,1.913 1.568,1.771 1.783,1.632 1.917,1.439 1.965,1.179 2.023,0.868 2.024,0.576 1.884,0.278 1.812,0.124 1.717,0.009 1.583,-0.074 1.436,-0.164 1.276,-0.232 1.086,-0.328"
             style="fill:#575756;fill-opacity:1;fill-rule:evenodd;stroke:none"
             id="path278"
             inkscape:connector-curvature="0" /></g><g
           id="g280"
           transform="translate(62.2588,45.3132)"><path
             d="M 0,0 C -0.054,0.353 -0.094,0.715 -0.17,1.07 -0.202,1.217 -0.292,1.363 -0.387,1.483 -0.561,1.701 -0.769,1.704 -0.986,1.525 -1.333,1.241 -1.443,0.837 -1.536,0.425 -1.555,0.342 -1.56,0.256 -1.58,0.174 c -0.073,-0.294 -0.065,-0.598 -0.038,-0.89 0.032,-0.332 0.112,-0.664 0.305,-0.959 0.196,-0.302 0.499,-0.334 0.741,-0.059 0.154,0.175 0.231,0.387 0.324,0.595 C -0.084,-0.777 -0.073,-0.388 0,0 M 0.745,0.116 C 0.771,-0.283 0.744,-0.642 0.626,-0.978 0.45,-1.484 0.187,-1.955 -0.285,-2.241 -0.713,-2.499 -1.311,-2.514 -1.75,-2.1 c -0.361,0.341 -0.516,0.776 -0.647,1.219 -0.083,0.281 -0.094,0.589 -0.058,0.89 0.025,0.211 0.043,0.424 0.08,0.633 0.067,0.382 0.255,0.712 0.474,1.023 0.272,0.385 0.648,0.617 1.126,0.65 0.108,0.008 0.222,-0.017 0.326,-0.048 C 0.039,2.123 0.358,1.806 0.536,1.327 0.686,0.92 0.786,0.512 0.745,0.116"
             style="fill:#575756;fill-opacity:1;fill-rule:evenodd;stroke:none"
             id="path282"
             inkscape:connector-curvature="0" /></g></g></g></g></svg>